<svg width="38" height="43" viewBox="0 0 38 43" fill="none" xmlns="http://www.w3.org/2000/svg">
<path fill-rule="evenodd" clip-rule="evenodd" d="M3.14012 9.35939L9.95204 5.47589L19.1912 0.194336L28.4303 5.47589L37.6695 10.7574V16.8934L32.3061 13.8254L19.1912 6.29142L8.50353 12.4273L3.14012 9.35939ZM0.712891 13.5147V19.806L19.5044 30.5633L24.7503 27.2623L0.712891 13.5147Z" fill="#4878A6"/>
<path fill-rule="evenodd" clip-rule="evenodd" d="M35.2423 33.2812L28.4303 37.1647L19.1912 42.4462L9.95204 37.1647L0.712891 31.8831V25.7472L6.0763 28.8152L19.1912 36.3103L29.8788 30.1744L35.2423 33.2812ZM23.6933 14.7958L19.3086 12.2715L14.141 15.2229L17.4295 17.1259L36.221 27.8831L37.7086 28.7375V22.7958L36.221 21.9414L23.6933 14.7958Z" fill="#2A5275"/>
</svg>
