<svg aria-hidden="true" style="position: absolute; width: 0; height: 0; overflow: hidden;" version="1.1" xmlns="http://www.w3.org/2000/svg" xmlns:xlink="http://www.w3.org/1999/xlink">
<defs>
<symbol id="instagram-icon" viewBox="0 0 32 32">
<path fill="#4878a6" style="fill: var(--color1, #4878a6)" d="M20.387 10.667h-8.108c-0.915 0-1.613 0.697-1.613 1.613v8.108c0 0.915 0.697 1.613 1.613 1.613h8.108c0.915 0 1.613-0.697 1.613-1.613v-8.108c0-0.915-0.697-1.613-1.613-1.613zM16.333 19.733c1.874 0 3.4-1.482 3.4-3.269 0-0.305-0.044-0.654-0.131-0.915h0.959v4.62c0 0.218-0.174 0.436-0.436 0.436h-7.585c-0.218 0-0.436-0.174-0.436-0.436v-4.664h1.003c-0.087 0.305-0.131 0.61-0.131 0.915-0.044 1.831 1.482 3.313 3.356 3.313zM16.333 18.426c-1.221 0-2.179-0.959-2.179-2.136s0.959-2.136 2.179-2.136c1.221 0 2.179 0.959 2.179 2.136 0 1.221-0.959 2.136-2.179 2.136zM20.518 13.762c0 0.262-0.218 0.479-0.479 0.479h-1.221c-0.262 0-0.479-0.218-0.479-0.479v-1.177c0-0.262 0.218-0.479 0.479-0.479h1.221c0.262 0 0.479 0.218 0.479 0.479v1.177z"></path>
</symbol>
<symbol id="vk-icon" viewBox="0 0 32 32">
<path fill="#2a5275" style="fill: var(--color2, #2a5275)" d="M22.537 19.41c0-0.055-0.055-0.055-0.055-0.111-0.221-0.443-0.72-0.996-1.384-1.605-0.332-0.277-0.498-0.498-0.609-0.609-0.166-0.221-0.166-0.387-0.111-0.609 0.055-0.166 0.277-0.443 0.664-0.941 0.221-0.277 0.332-0.443 0.498-0.609 0.83-1.107 1.218-1.827 1.107-2.159l-0.055-0.055c-0.055-0.055-0.111-0.111-0.221-0.111-0.111-0.055-0.277-0.055-0.443 0h-2.103c-0.055 0-0.055 0-0.166 0-0.055 0-0.111 0-0.111 0h-0.111l-0.055 0.055c-0.055 0.055-0.055 0.055-0.055 0.111-0.221 0.609-0.498 1.107-0.775 1.66-0.166 0.277-0.332 0.553-0.498 0.775s-0.277 0.387-0.387 0.498c-0.111 0.111-0.221 0.166-0.277 0.277-0.055 0.055-0.166 0.111-0.166 0.055-0.055 0-0.111 0-0.111-0.055-0.055-0.055-0.111-0.111-0.166-0.166s-0.055-0.166-0.111-0.277c0-0.111 0-0.221 0-0.277s0-0.221 0-0.332c0-0.166 0-0.277 0-0.332 0-0.166 0-0.387 0-0.609s0-0.387 0-0.498c0-0.111 0-0.277 0-0.387 0-0.166 0-0.277 0-0.332s-0.055-0.166-0.055-0.221c-0.055-0.055-0.111-0.111-0.166-0.166s-0.166-0.055-0.221-0.111c-0.277-0.055-0.609-0.111-0.996-0.111-0.886 0-1.494 0.055-1.716 0.166-0.111 0.055-0.221 0.111-0.277 0.221-0.111 0.111-0.111 0.166-0.055 0.166 0.277 0.055 0.498 0.166 0.609 0.332l0.055 0.111c0.055 0.055 0.055 0.166 0.111 0.332s0.055 0.332 0.055 0.553c0 0.332 0 0.664 0 0.886 0 0.277-0.055 0.443-0.055 0.609s-0.055 0.277-0.111 0.332c-0.055 0.111-0.055 0.166-0.111 0.166 0 0 0 0.055-0.055 0.055s-0.111 0.055-0.221 0.055c-0.055 0-0.166-0.055-0.221-0.111-0.111-0.055-0.221-0.166-0.277-0.277-0.111-0.111-0.221-0.277-0.332-0.498s-0.277-0.443-0.387-0.775l-0.111-0.221c-0.055-0.111-0.166-0.332-0.277-0.609s-0.221-0.498-0.332-0.775c-0.055-0.111-0.111-0.166-0.166-0.221h-0.055c0 0-0.055-0.055-0.111-0.055s-0.111-0.055-0.166-0.055h-1.993c-0.221 0-0.332 0.055-0.387 0.111l-0.055 0.055c0 0 0 0.055 0 0.111s0 0.111 0.055 0.221c0.277 0.664 0.609 1.328 0.941 1.993 0.332 0.609 0.664 1.162 0.886 1.55 0.277 0.387 0.498 0.775 0.775 1.107s0.443 0.553 0.498 0.664c0.111 0.111 0.166 0.166 0.221 0.221l0.166 0.166c0.111 0.111 0.277 0.277 0.498 0.443s0.498 0.332 0.775 0.498c0.277 0.166 0.609 0.277 0.941 0.387 0.387 0.111 0.72 0.166 1.052 0.111h0.83c0.166 0 0.277-0.055 0.387-0.166l0.055-0.055c0-0.055 0.055-0.055 0.055-0.111s0-0.111 0-0.221c0-0.221 0-0.387 0.055-0.554s0.055-0.277 0.111-0.387c0.055-0.111 0.111-0.166 0.166-0.221s0.111-0.111 0.111-0.111h0.055c0.111-0.055 0.277 0 0.387 0.111 0.166 0.111 0.332 0.277 0.443 0.443s0.277 0.332 0.498 0.553c0.221 0.221 0.387 0.387 0.498 0.443l0.166 0.111c0.111 0.055 0.221 0.111 0.387 0.166s0.277 0.055 0.387 0.055l1.882-0.055c0.166 0 0.332-0.055 0.443-0.111s0.166-0.111 0.166-0.221c0-0.055 0-0.166 0-0.221-0.111-0.111-0.111-0.166-0.111-0.221z"></path>
</symbol>
<symbol id="facebook-icon" viewBox="0 0 32 32">
<path fill="#4878a6" style="fill: var(--color1, #4878a6)" d="M22 11.879c0-0.998-0.881-1.879-1.879-1.879h-7.575c-0.998 0-1.879 0.881-1.879 1.879v7.575c0 0.998 0.881 1.879 1.879 1.879h3.817v-4.287h-1.409v-1.879h1.409v-0.763c0-1.292 0.94-2.408 2.114-2.408h1.527v1.879h-1.527c-0.176 0-0.352 0.176-0.352 0.528v0.763h1.879v1.879h-1.879v4.287h1.997c0.998 0 1.879-0.881 1.879-1.879v-7.575z"></path>
</symbol>
<symbol id="twitter-icon" viewBox="0 0 32 32">
<path fill="#4878a6" style="fill: var(--color1, #4878a6)" d="M22.4 11.933c-0.467 0.2-1 0.333-1.533 0.4 0.533-0.333 1-0.867 1.2-1.467-0.533 0.333-1.067 0.533-1.733 0.667-0.467-0.533-1.2-0.867-1.933-0.867-1.467 0-2.667 1.2-2.667 2.667 0 0.2 0 0.4 0.067 0.6-2.2-0.133-4.2-1.2-5.533-2.8-0.2 0.4-0.333 0.867-0.333 1.333 0 0.933 0.467 1.733 1.2 2.2-0.467 0-0.867-0.133-1.2-0.333 0 1.267 0.933 2.4 2.133 2.6-0.2 0.067-0.467 0.067-0.733 0.067-0.2 0-0.333 0-0.533-0.067 0.333 1.067 1.333 1.867 2.533 1.867-0.933 0.733-2.067 1.133-3.333 1.133-0.2 0-0.4 0-0.667-0.067 1.2 0.733 2.6 1.2 4.133 1.2 4.933 0 7.6-4.067 7.6-7.6v-0.333c0.533-0.2 1-0.667 1.333-1.2z"></path>
</symbol>
<symbol id="message-icon" viewBox="0 0 24 24" fill="none">
<path d="M21 15C21 15.5304 20.7893 16.0391 20.4142 16.4142C20.0391 16.7893 19.5304 17 19 17H7L3 21V5C3 4.46957 3.21071 3.96086 3.58579 3.58579C3.96086 3.21071 4.46957 3 5 3H19C19.5304 3 20.0391 3.21071 20.4142 3.58579C20.7893 3.96086 21 4.46957 21 5V15Z"
stroke="#070C11" stroke-width="2" stroke-linecap="round" stroke-linejoin="round"/>
</symbol>
<symbol id="star-grey-icon" viewBox="0 0 32 32">
<path fill="#eaeaf0" style="fill: var(--color3, #eaeaf0)" d="M16 2.667l4.12 8.347 9.213 1.347-6.667 6.493 1.573 9.173-8.24-4.333-8.24 4.333 1.573-9.173-6.667-6.493 9.213-1.347 4.12-8.347z"></path>
</symbol>
<symbol id="star-yellow-icon" viewBox="0 0 32 32">
<path fill="#fbb13c" style="fill: var(--color4, #fbb13c)" d="M16 2.667l4.12 8.347 9.213 1.347-6.667 6.493 1.573 9.173-8.24-4.333-8.24 4.333 1.573-9.173-6.667-6.493 9.213-1.347 4.12-8.347z"></path>
</symbol>
<symbol id="polygon-icon" viewBox="0 0 17 32">
<path fill="#2a5275" style="fill: var(--color2, #2a5275)" d="M16.55 15.151c0.49 0.46 0.49 1.238 0 1.697l-14.59 13.688c-0.743 0.697-1.96 0.17-1.96-0.849v-27.377c0-1.019 1.217-1.546 1.96-0.849l14.59 13.688z"></path>
</symbol>
<symbol id="smart-watch-icon" viewBox="0 0 32 32">
<path fill="#4878a6" style="fill: var(--color1, #4878a6); stroke: var(--color5, #0e1821)" stroke="#0e1821" stroke-linejoin="miter" stroke-linecap="butt" stroke-miterlimit="4" stroke-width="0.4801" d="M9.122 4.401h13.763c1.812 0 3.281 1.469 3.281 3.281v16.483c0 1.812-1.469 3.281-3.281 3.281h-13.763c-1.812 0-3.281-1.469-3.281-3.281v-16.483c0-1.812 1.469-3.281 3.281-3.281z"></path>
<path fill="#fff" style="fill: var(--color6, #fff); stroke: var(--color5, #0e1821)" stroke="#0e1821" stroke-linejoin="miter" stroke-linecap="butt" stroke-miterlimit="4" stroke-width="0.4801" d="M9.442 6.001h13.123c0.928 0 1.68 0.752 1.68 1.68v16.323c0 0.928-0.752 1.68-1.68 1.68h-13.123c-0.928 0-1.68-0.752-1.68-1.68v-16.323c0-0.928 0.752-1.68 1.68-1.68z"></path>
<path fill="#f15152" style="fill: var(--color7, #f15152)" d="M15.13 8.128c0.011-0.036 0.033-0.068 0.063-0.091s0.068-0.035 0.105-0.035h1.408c0.028 0 0.055 0.007 0.080 0.019s0.046 0.031 0.063 0.053c0.016 0.023 0.027 0.049 0.031 0.076s0.002 0.055-0.007 0.082l-0.627 1.87h1.34c0.033-0 0.065 0.009 0.093 0.027s0.050 0.042 0.065 0.072c0.015 0.030 0.020 0.062 0.017 0.095s-0.016 0.064-0.036 0.089l-2.464 3.151c-0.025 0.032-0.061 0.055-0.101 0.064s-0.082 0.003-0.119-0.016c-0.037-0.019-0.065-0.050-0.081-0.088s-0.018-0.080-0.006-0.119l0.634-2.049h-1.17c-0.027 0-0.054-0.006-0.079-0.018s-0.046-0.030-0.062-0.052-0.027-0.047-0.032-0.074c-0.005-0.027-0.003-0.054 0.004-0.081l0.88-2.975zM15.43 8.352l-0.777 2.625h1.173c0.028 0 0.055 0.006 0.079 0.019s0.046 0.030 0.062 0.052c0.016 0.022 0.027 0.048 0.032 0.075s0.003 0.055-0.005 0.081l-0.422 1.363 1.654-2.114h-1.224c-0.028 0-0.055-0.007-0.080-0.019s-0.046-0.031-0.063-0.053c-0.016-0.023-0.027-0.049-0.031-0.076s-0.002-0.055 0.007-0.082l0.627-1.87h-1.032z"></path>
<path fill="#fbb13c" style="fill: var(--color4, #fbb13c); stroke: var(--color5, #0e1821)" stroke="#0e1821" stroke-linejoin="miter" stroke-linecap="butt" stroke-miterlimit="4" stroke-width="0.4801" d="M13.043 17.603c0 0.663-0.537 1.2-1.2 1.2s-1.2-0.537-1.2-1.2c0-0.663 0.537-1.2 1.2-1.2s1.2 0.537 1.2 1.2z"></path>
<path fill="#fbb13c" style="fill: var(--color4, #fbb13c); stroke: var(--color5, #0e1821)" stroke="#0e1821" stroke-linejoin="miter" stroke-linecap="butt" stroke-miterlimit="4" stroke-width="0.4801" d="M13.043 21.765c0 0.663-0.537 1.2-1.2 1.2s-1.2-0.537-1.2-1.2c0-0.663 0.537-1.2 1.2-1.2s1.2 0.537 1.2 1.2z"></path>
<path fill="#fbb13c" style="fill: var(--color4, #fbb13c); stroke: var(--color5, #0e1821)" stroke="#0e1821" stroke-linejoin="miter" stroke-linecap="butt" stroke-miterlimit="4" stroke-width="0.4801" d="M17.203 17.603c0 0.663-0.537 1.2-1.2 1.2s-1.2-0.537-1.2-1.2c0-0.663 0.537-1.2 1.2-1.2s1.2 0.537 1.2 1.2z"></path>
<path fill="#fbb13c" style="fill: var(--color4, #fbb13c); stroke: var(--color5, #0e1821)" stroke="#0e1821" stroke-linejoin="miter" stroke-linecap="butt" stroke-miterlimit="4" stroke-width="0.4801" d="M17.203 21.765c0 0.663-0.537 1.2-1.2 1.2s-1.2-0.537-1.2-1.2c0-0.663 0.537-1.2 1.2-1.2s1.2 0.537 1.2 1.2z"></path>
<path fill="#fbb13c" style="fill: var(--color4, #fbb13c); stroke: var(--color5, #0e1821)" stroke="#0e1821" stroke-linejoin="miter" stroke-linecap="butt" stroke-miterlimit="4" stroke-width="0.4801" d="M21.363 17.603c0 0.663-0.537 1.2-1.2 1.2s-1.2-0.537-1.2-1.2c0-0.663 0.537-1.2 1.2-1.2s1.2 0.537 1.2 1.2z"></path>
<path fill="#fbb13c" style="fill: var(--color4, #fbb13c); stroke: var(--color5, #0e1821)" stroke="#0e1821" stroke-linejoin="miter" stroke-linecap="butt" stroke-miterlimit="4" stroke-width="0.4801" d="M21.363 21.765c0 0.663-0.537 1.2-1.2 1.2s-1.2-0.537-1.2-1.2c0-0.663 0.537-1.2 1.2-1.2s1.2 0.537 1.2 1.2z"></path>
<path fill="#2a5275" style="fill: var(--color2, #2a5275); stroke: var(--color5, #0e1821)" stroke="#0e1821" stroke-linejoin="miter" stroke-linecap="butt" stroke-miterlimit="4" stroke-width="0.4801" d="M10.402 1.521c0.116-0.649 0.68-1.121 1.339-1.121h8.363c0.659 0 1.223 0.472 1.339 1.121l0.514 2.88h-12.069l0.514-2.88z"></path>
<path fill="#2a5275" style="fill: var(--color2, #2a5275); stroke: var(--color5, #0e1821)" stroke="#0e1821" stroke-linejoin="miter" stroke-linecap="butt" stroke-miterlimit="4" stroke-width="0.4801" d="M10.402 30.325c0.116 0.649 0.68 1.121 1.339 1.121h8.363c0.659 0 1.223-0.472 1.339-1.121l0.514-2.88h-12.069l0.514 2.88z"></path>
</symbol>
<symbol id="smart-toys-icon" viewBox="0 0 32 32">
<path fill="#2a5275" style="fill: var(--color2, #2a5275); stroke: var(--color5, #0e1821)" stroke="#0e1821" stroke-linejoin="miter" stroke-linecap="butt" stroke-miterlimit="4" stroke-width="0.4801" d="M5.681 10.962c0-1.105 0.896-2 2-2h1.76c1.105 0 2 0.896 2 2v2h-5.761v-2z"></path>
<path fill="#4878a6" style="fill: var(--color1, #4878a6); stroke: var(--color5, #0e1821)" stroke="#0e1821" stroke-linejoin="miter" stroke-linecap="butt" stroke-miterlimit="4" stroke-width="0.4801" d="M14.484 12.402c0-0.575 0.466-1.040 1.040-1.040h0.96c0.575 0 1.040 0.466 1.040 1.040v1.040h-3.041v-1.040z"></path>
<path fill="#2a5275" style="fill: var(--color2, #2a5275); stroke: var(--color5, #0e1821)" stroke="#0e1821" stroke-linejoin="miter" stroke-linecap="butt" stroke-miterlimit="4" stroke-width="0.4801" d="M20.564 10.962c0-1.105 0.896-2 2-2h1.76c1.105 0 2 0.896 2 2v2h-5.761v-2z"></path>
<path fill="#fff" style="fill: var(--color6, #fff); stroke: var(--color5, #0e1821)" stroke="#0e1821" stroke-linejoin="round" stroke-linecap="round" stroke-miterlimit="4" stroke-width="0.4801" d="M2.24 26.377v-7.859c0-4.145 3.199-8.313 7.201-7.236 0.917 0.247 1.801 0.791 2.444 1.261 0.669 0.489 1.46 0.82 2.289 0.82h3.657c0.829 0 1.62-0.331 2.289-0.82 0.643-0.47 1.527-1.014 2.444-1.261 4.002-1.078 7.201 3.091 7.201 7.236v7.859c0 2.137-1.732 3.869-3.869 3.869-1.802 0-3.455-1.002-4.288-2.599l-1.844-3.535c-0.393-0.754-1.174-1.227-2.024-1.227h-3.473c-0.851 0-1.631 0.473-2.024 1.227l-1.845 3.535c-0.834 1.598-2.486 2.599-4.288 2.599-2.137 0-3.869-1.732-3.869-3.869z"></path>
<path fill="#2a5275" style="fill: var(--color2, #2a5275)" d="M12.804 17.524c0 2.386-1.935 4.321-4.321 4.321s-4.321-1.934-4.321-4.321 1.935-4.321 4.321-4.321c2.386 0 4.321 1.934 4.321 4.321zM6.294 17.524c0 1.209 0.98 2.189 2.189 2.189s2.189-0.98 2.189-2.189c0-1.209-0.98-2.189-2.189-2.189s-2.189 0.98-2.189 2.189z"></path>
<path fill="none" stroke="#0e1821" style="stroke: var(--color5, #0e1821)" stroke-linejoin="miter" stroke-linecap="butt" stroke-miterlimit="4" stroke-width="0.4801" d="M10.643 17.523c0 1.193-0.967 2.16-2.16 2.16s-2.16-0.967-2.16-2.16c0-1.193 0.967-2.16 2.16-2.16s2.16 0.967 2.16 2.16z"></path>
<path fill="none" stroke="#0e1821" style="stroke: var(--color5, #0e1821)" stroke-linejoin="miter" stroke-linecap="butt" stroke-miterlimit="4" stroke-width="0.4801" d="M12.884 17.524c0 2.431-1.97 4.401-4.401 4.401s-4.401-1.97-4.401-4.401c0-2.431 1.97-4.401 4.401-4.401s4.401 1.97 4.401 4.401z"></path>
<path fill="#f15152" style="fill: var(--color7, #f15152); stroke: var(--color5, #0e1821)" stroke="#0e1821" stroke-linejoin="miter" stroke-linecap="butt" stroke-miterlimit="4" stroke-width="0.4801" d="M21.685 17.523c0 0.751-0.609 1.36-1.36 1.36s-1.36-0.609-1.36-1.36c0-0.751 0.609-1.36 1.36-1.36s1.36 0.609 1.36 1.36z"></path>
<path fill="#f15152" style="fill: var(--color7, #f15152); stroke: var(--color5, #0e1821)" stroke="#0e1821" stroke-linejoin="miter" stroke-linecap="butt" stroke-miterlimit="4" stroke-width="0.4801" d="M23.444 19.284c0.751 0 1.36 0.609 1.36 1.36s-0.609 1.36-1.36 1.36c-0.751 0-1.36-0.609-1.36-1.36s0.609-1.36 1.36-1.36z"></path>
<path fill="#f15152" style="fill: var(--color7, #f15152); stroke: var(--color5, #0e1821)" stroke="#0e1821" stroke-linejoin="miter" stroke-linecap="butt" stroke-miterlimit="4" stroke-width="0.4801" d="M27.925 17.523c0 0.751-0.609 1.36-1.36 1.36s-1.36-0.609-1.36-1.36c0-0.751 0.609-1.36 1.36-1.36s1.36 0.609 1.36 1.36z"></path>
<path fill="#f15152" style="fill: var(--color7, #f15152); stroke: var(--color5, #0e1821)" stroke="#0e1821" stroke-linejoin="miter" stroke-linecap="butt" stroke-miterlimit="4" stroke-width="0.4801" d="M23.444 13.042c0.751 0 1.36 0.609 1.36 1.36s-0.609 1.36-1.36 1.36c-0.751 0-1.36-0.609-1.36-1.36s0.609-1.36 1.36-1.36z"></path>
<path fill="none" stroke="#0e1821" style="stroke: var(--color5, #0e1821)" stroke-linejoin="round" stroke-linecap="round" stroke-miterlimit="4" stroke-width="0.4801" d="M16.004 11.363v-1.84c0-0.884 0.716-1.6 1.6-1.6h3.001c0.862 0 1.56-0.699 1.56-1.56v0c0-0.862-0.699-1.56-1.56-1.56h-3.001c-0.884 0-1.6-0.716-1.6-1.6v-1.44"></path>
<path fill="none" stroke="#0e1821" style="stroke: var(--color5, #0e1821)" stroke-linejoin="miter" stroke-linecap="round" stroke-miterlimit="4" stroke-width="0.4801" d="M14.963 16.083h2.080"></path>
<path fill="none" stroke="#0e1821" style="stroke: var(--color5, #0e1821)" stroke-linejoin="miter" stroke-linecap="round" stroke-miterlimit="4" stroke-width="0.4801" d="M14.004 20.884h1.12"></path>
<path fill="none" stroke="#0e1821" style="stroke: var(--color5, #0e1821)" stroke-linejoin="miter" stroke-linecap="round" stroke-miterlimit="4" stroke-width="0.4801" d="M16.885 20.884h1.12"></path>
</symbol>
<symbol id="accessories-icon" viewBox="0 0 32 32">
<path fill="#4878a6" style="fill: var(--color1, #4878a6)" stroke-linejoin="miter" stroke-linecap="butt" stroke-miterlimit="4" stroke-width="0.4801" stroke="#000" d="M3.601 15.203c0-6.85 5.553-12.402 12.403-12.402s12.402 5.553 12.402 12.402v5.841c0 0.575-0.466 1.040-1.040 1.040h-0.4v-6.036c0-6.497-4.443-11.808-10.962-11.808s-10.962 5.311-10.962 11.808v6.036h-0.4c-0.575 0-1.040-0.466-1.040-1.040v-5.841z"></path>
<path fill="#4878a6" style="fill: var(--color1, #4878a6)" stroke-linejoin="miter" stroke-linecap="butt" stroke-miterlimit="4" stroke-width="0.4801" stroke="#000" d="M4.881 19.281c0-0.884 0.716-1.6 1.6-1.6h1.6v8.16h-1.6c-0.884 0-1.6-0.716-1.6-1.6v-4.959z"></path>
<path fill="#4878a6" style="fill: var(--color1, #4878a6)" stroke-linejoin="miter" stroke-linecap="butt" stroke-miterlimit="4" stroke-width="0.4801" stroke="#000" d="M27.119 19.281c0-0.884-0.716-1.6-1.6-1.6h-1.6v8.16h1.6c0.884 0 1.6-0.716 1.6-1.6v-4.959z"></path>
<path fill="#2a5275" style="fill: var(--color2, #2a5275)" stroke-linejoin="miter" stroke-linecap="butt" stroke-miterlimit="4" stroke-width="0.4801" stroke="#000" d="M9.281 16.080v0c1.193 0 2.16 0.967 2.16 2.16v7.040c0 1.193-0.967 2.16-2.16 2.16v0c-1.193 0-2.16-0.967-2.16-2.16v-7.040c0-1.193 0.967-2.16 2.16-2.16z"></path>
<path fill="#2a5275" style="fill: var(--color2, #2a5275)" stroke-linejoin="miter" stroke-linecap="butt" stroke-miterlimit="4" stroke-width="0.4801" stroke="#000" d="M22.721 16.080v0c-1.193 0-2.16 0.967-2.16 2.16v7.040c0 1.193 0.967 2.16 2.16 2.16v0c1.193 0 2.16-0.967 2.16-2.16v-7.040c0-1.193-0.967-2.16-2.16-2.16z"></path>
</symbol>
<symbol id="electric-cars-icon" viewBox="0 0 32 32">
<path fill="#2a5275" style="fill: var(--color2, #2a5275); stroke: var(--color5, #0e1821)" stroke="#0e1821" stroke-linejoin="miter" stroke-linecap="butt" stroke-miterlimit="4" stroke-width="0.4801" d="M3.6 24.405h25.125c0.707 0 1.28 0.573 1.28 1.28s-0.573 1.28-1.28 1.28h-25.125c-0.707 0-1.28-0.573-1.28-1.28s0.573-1.28 1.28-1.28z"></path>
<path fill="#0e1821" style="fill: var(--color5, #0e1821); stroke: var(--color5, #0e1821)" stroke="#0e1821" stroke-linejoin="miter" stroke-linecap="butt" stroke-miterlimit="4" stroke-width="0.4801" d="M4.56 26.966h5.281v2.801c0 0.486-0.394 0.88-0.88 0.88h-3.521c-0.486 0-0.88-0.394-0.88-0.88v-2.801z"></path>
<path fill="#0e1821" style="fill: var(--color5, #0e1821); stroke: var(--color5, #0e1821)" stroke="#0e1821" stroke-linejoin="miter" stroke-linecap="butt" stroke-miterlimit="4" stroke-width="0.4801" d="M22.484 26.966h5.281v2.801c0 0.486-0.394 0.88-0.88 0.88h-3.521c-0.486 0-0.88-0.394-0.88-0.88v-2.801z"></path>
<path fill="#4878a6" style="fill: var(--color1, #4878a6); stroke: var(--color5, #0e1821)" stroke="#0e1821" stroke-linejoin="miter" stroke-linecap="butt" stroke-miterlimit="4" stroke-width="0.4801" d="M2.961 19.364c0-1.812 1.469-3.281 3.281-3.281h19.844c1.812 0 3.281 1.469 3.281 3.281v3.521c0 0.84-0.681 1.52-1.52 1.52h-23.365c-0.84 0-1.52-0.681-1.52-1.52v-3.521z"></path>
<path fill="#4878a6" style="fill: var(--color1, #4878a6); stroke: var(--color5, #0e1821)" stroke="#0e1821" stroke-linejoin="round" stroke-linecap="round" stroke-miterlimit="4" stroke-width="0.4801" d="M22.233 8.321h-12.139c-1.429 0-2.686 0.948-3.078 2.322l-1.575 5.519h21.444l-1.575-5.519c-0.392-1.375-1.648-2.322-3.078-2.322z"></path>
<path fill="#fff" style="fill: var(--color6, #fff); stroke: var(--color5, #0e1821)" stroke="#0e1821" stroke-linejoin="round" stroke-linecap="round" stroke-miterlimit="4" stroke-width="0.4801" d="M22.863 10.162h-13.4c-0.347 0-0.654 0.223-0.761 0.553l-1.741 5.368h18.404l-1.741-5.368c-0.107-0.33-0.414-0.553-0.761-0.553z"></path>
<path fill="none" stroke="#0e1821" style="stroke: var(--color5, #0e1821)" stroke-linejoin="miter" stroke-linecap="butt" stroke-miterlimit="4" stroke-width="0.4801" d="M6.3 13.283h-0.7c-2.121 0-3.841-1.72-3.841-3.841v-2.721c0-2.121 1.72-3.841 3.841-3.841h18.884"></path>
<path fill="#f15152" style="fill: var(--color7, #f15152); stroke: var(--color5, #0e1821)" stroke="#0e1821" stroke-linejoin="miter" stroke-linecap="butt" stroke-miterlimit="4" stroke-width="0.4801" d="M25.205 2.16v1.44h-0.72c-0.133 0-0.24-0.107-0.24-0.24v-0.96c0-0.133 0.107-0.24 0.24-0.24h0.72z"></path>
<path fill="#f15152" style="fill: var(--color7, #f15152); stroke: var(--color5, #0e1821)" stroke="#0e1821" stroke-linejoin="miter" stroke-linecap="butt" stroke-miterlimit="4" stroke-width="0.4801" d="M27.445 1.36v3.041h-2c-0.133 0-0.24-0.107-0.24-0.24v-2.561c0-0.133 0.108-0.24 0.24-0.24h2z"></path>
<path fill="none" stroke="#0e1821" style="stroke: var(--color5, #0e1821)" stroke-linejoin="miter" stroke-linecap="round" stroke-miterlimit="4" stroke-width="0.4801" d="M27.765 2h0.96"></path>
<path fill="none" stroke="#0e1821" style="stroke: var(--color5, #0e1821)" stroke-linejoin="miter" stroke-linecap="round" stroke-miterlimit="4" stroke-width="0.4801" d="M27.765 3.761h0.96"></path>
<path fill="#fbb13c" style="fill: var(--color4, #fbb13c); stroke: var(--color5, #0e1821)" stroke="#0e1821" stroke-linejoin="miter" stroke-linecap="butt" stroke-miterlimit="4" stroke-width="0.4801" d="M9.362 20.724c0 1.237-1.003 2.24-2.24 2.24s-2.24-1.003-2.24-2.24c0-1.237 1.003-2.24 2.24-2.24s2.24 1.003 2.24 2.24z"></path>
<path fill="#fbb13c" style="fill: var(--color4, #fbb13c); stroke: var(--color5, #0e1821)" stroke="#0e1821" stroke-linejoin="miter" stroke-linecap="butt" stroke-miterlimit="4" stroke-width="0.4801" d="M27.446 20.724c0 1.237-1.003 2.24-2.24 2.24s-2.24-1.003-2.24-2.24c0-1.237 1.003-2.24 2.24-2.24s2.24 1.003 2.24 2.24z"></path>
<path fill="#fff" style="fill: var(--color6, #fff)" d="M15.29 17.729c0.011-0.036 0.033-0.068 0.063-0.091s0.068-0.035 0.105-0.035h1.408c0.028 0 0.055 0.007 0.080 0.019s0.046 0.031 0.063 0.053 0.027 0.049 0.031 0.076c0.004 0.027 0.002 0.055-0.007 0.082l-0.627 1.87h1.34c0.033 0 0.065 0.009 0.093 0.026s0.050 0.042 0.065 0.072 0.020 0.062 0.017 0.095c-0.003 0.033-0.016 0.064-0.036 0.090l-2.464 3.151c-0.025 0.032-0.061 0.055-0.101 0.064s-0.082 0.003-0.119-0.016c-0.037-0.019-0.065-0.050-0.081-0.088s-0.018-0.080-0.006-0.119l0.634-2.049h-1.17c-0.027 0-0.054-0.006-0.079-0.018s-0.046-0.030-0.062-0.052-0.027-0.047-0.032-0.074c-0.005-0.027-0.003-0.054 0.004-0.080l0.88-2.975zM15.59 17.954l-0.777 2.625h1.173c0.028 0 0.055 0.006 0.079 0.019s0.046 0.030 0.062 0.052c0.016 0.022 0.027 0.047 0.032 0.075s0.003 0.055-0.005 0.081l-0.422 1.363 1.654-2.114h-1.224c-0.028-0-0.055-0.007-0.080-0.019s-0.046-0.031-0.063-0.053c-0.016-0.022-0.027-0.049-0.031-0.076s-0.002-0.055 0.007-0.082l0.627-1.87h-1.032z"></path>
</symbol>
<symbol id="electric-skates-icon" viewBox="0 0 32 32">
<path fill="none" stroke="#000" style="stroke: var(--color8, #000)" stroke-linejoin="miter" stroke-linecap="butt" stroke-miterlimit="4" stroke-width="0.48" d="M8.705 22.777c0.512 0.261 1.774 0.474 2.731-0.763"></path>
<path fill="#f15152" style="fill: var(--color7, #f15152); stroke: var(--color5, #0e1821)" stroke="#0e1821" stroke-linejoin="miter" stroke-linecap="butt" stroke-miterlimit="4" stroke-width="0.48" d="M10.838 19.701l8.452-4.88c0.497-0.287 1.133-0.117 1.421 0.381l0.64 1.109c0.287 0.497 0.117 1.133-0.381 1.421l-8.452 4.88c-0.497 0.287-1.133 0.117-1.421-0.381l-0.64-1.108c-0.287-0.497-0.117-1.133 0.381-1.421z"></path>
<path fill="#fff" style="fill: var(--color6, #fff); stroke: var(--color5, #0e1821)" stroke="#0e1821" stroke-linejoin="miter" stroke-linecap="butt" stroke-miterlimit="4" stroke-width="0.48" d="M24.553 13.694l-0.627-1.087c-0.177-0.306-0.072-0.697 0.234-0.874l2.633-1.52c0.306-0.177 0.698-0.072 0.874 0.234l0.628 1.087c0.085 0.147 0.108 0.322 0.064 0.486l-0.556 2.076c-0.091 0.341-0.442 0.544-0.784 0.453l-2.076-0.556c-0.164-0.044-0.304-0.151-0.389-0.298z"></path>
<path fill="#fff" style="fill: var(--color6, #fff); stroke: var(--color5, #0e1821)" stroke="#0e1821" stroke-linejoin="miter" stroke-linecap="butt" stroke-miterlimit="4" stroke-width="0.48" d="M5.433 24.74l-0.631-1.093c-0.177-0.306-0.072-0.698 0.234-0.874l2.494-1.44c0.306-0.177 0.698-0.072 0.874 0.234l0.631 1.093c0.083 0.143 0.107 0.313 0.067 0.474l-0.499 2.015c-0.087 0.352-0.45 0.561-0.798 0.461l-1.995-0.575c-0.159-0.046-0.294-0.152-0.377-0.295z"></path>
<path fill="#4878a6" style="fill: var(--color1, #4878a6); stroke: var(--color5, #0e1821)" stroke="#0e1821" stroke-linejoin="miter" stroke-linecap="butt" stroke-miterlimit="4" stroke-width="0.48" d="M30.133 7.36l-29.098 16.8c-0.306 0.177-0.411 0.568-0.234 0.874s0.568 0.411 0.874 0.234l0.79-0.456c0.68-0.392 1.415-0.678 2.181-0.849l0.144-0.032c0.862-0.191 1.689-0.513 2.453-0.954l18.762-10.832c0.764-0.441 1.457-0.997 2.053-1.647l0.1-0.109c0.53-0.578 1.146-1.072 1.825-1.465l0.79-0.456c0.306-0.177 0.411-0.568 0.234-0.874s-0.568-0.411-0.874-0.234z"></path>
<path fill="#fff" style="fill: var(--color6, #fff)" d="M29.559 15.327c0.376 0.651 0.153 1.484-0.498 1.86s-1.484 0.153-1.86-0.498c-0.376-0.651-0.153-1.484 0.498-1.86s1.484-0.153 1.86 0.498z"></path>
<path fill="#0e1821" style="fill: var(--color5, #0e1821); stroke: var(--color5, #0e1821)" stroke="#0e1821" stroke-linejoin="miter" stroke-linecap="butt" stroke-miterlimit="4" stroke-width="0.96" d="M31.244 14.355c0.913 1.582 0.371 3.604-1.21 4.517s-3.604 0.371-4.517-1.21c-0.913-1.581-0.371-3.604 1.21-4.517s3.604-0.371 4.517 1.21zM27.448 16.546c0.297 0.515 0.955 0.691 1.47 0.394s0.691-0.955 0.394-1.47-0.955-0.691-1.47-0.394c-0.515 0.297-0.691 0.955-0.394 1.47z"></path>
<path fill="#fff" style="fill: var(--color6, #fff)" d="M10.355 26.414c0.376 0.651 0.153 1.484-0.498 1.86s-1.484 0.153-1.86-0.498c-0.376-0.651-0.153-1.484 0.498-1.86s1.484-0.153 1.86 0.498z"></path>
<path fill="#0e1821" style="fill: var(--color5, #0e1821); stroke: var(--color5, #0e1821)" stroke="#0e1821" stroke-linejoin="miter" stroke-linecap="butt" stroke-miterlimit="4" stroke-width="0.96" d="M12.041 25.442c0.913 1.581 0.371 3.604-1.21 4.517s-3.604 0.371-4.517-1.21c-0.913-1.581-0.371-3.604 1.21-4.517s3.604-0.371 4.517 1.21zM8.245 27.633c0.297 0.515 0.955 0.691 1.47 0.394s0.691-0.955 0.394-1.47c-0.297-0.515-0.955-0.691-1.47-0.394s-0.691 0.955-0.394 1.47z"></path>
<path fill="#fff" style="fill: var(--color6, #fff); stroke: var(--color5, #0e1821)" stroke="#0e1821" stroke-linejoin="miter" stroke-linecap="butt" stroke-miterlimit="4" stroke-width="0.48" d="M14.639 8.32c0 3.049-2.471 5.52-5.52 5.52s-5.52-2.471-5.52-5.52c0-3.049 2.471-5.52 5.52-5.52s5.52 2.471 5.52 5.52z"></path>
<path fill="#f15152" style="fill: var(--color7, #f15152)" d="M7.851 4.503c0.016-0.053 0.048-0.099 0.092-0.132s0.098-0.051 0.153-0.051h2.048c0.040 0 0.081 0.010 0.117 0.028s0.067 0.045 0.091 0.078 0.039 0.071 0.045 0.111c0.006 0.040 0.003 0.081-0.010 0.119l-0.911 2.724h1.949c0.048-0 0.095 0.013 0.136 0.039s0.073 0.061 0.095 0.104c0.021 0.043 0.030 0.091 0.025 0.138s-0.023 0.093-0.053 0.13l-3.584 4.59c-0.037 0.047-0.089 0.080-0.147 0.093s-0.12 0.005-0.173-0.023c-0.053-0.027-0.095-0.073-0.118-0.128s-0.026-0.117-0.008-0.174l0.922-2.985h-1.701c-0.040 0-0.079-0.009-0.115-0.027s-0.067-0.043-0.090-0.075c-0.024-0.032-0.040-0.069-0.047-0.108s-0.005-0.079 0.006-0.117l1.28-4.335zM8.288 4.83l-1.129 3.825h1.706c0.040 0 0.080 0.009 0.115 0.027s0.067 0.044 0.091 0.076c0.024 0.032 0.040 0.069 0.046 0.109s0.004 0.080-0.008 0.118l-0.613 1.985 2.405-3.080h-1.781c-0.041-0-0.081-0.010-0.117-0.028s-0.067-0.045-0.091-0.078c-0.024-0.033-0.039-0.071-0.045-0.111s-0.003-0.081 0.010-0.119l0.911-2.724h-1.501z"></path>
</symbol>
<symbol id="electric-bicycles-icon" viewBox="0 0 32 32">
<path fill="#4878a6" style="fill: var(--color1, #4878a6); stroke: var(--color5, #0e1821)" stroke="#0e1821" stroke-linejoin="round" stroke-linecap="round" stroke-miterlimit="4" stroke-width="0.4801" d="M7.475 24.629l-1.050 1.499h9.371v-7.572h6.147l-5.473 5.173 0.45 1.125 6.297-5.847 0.825 5.997 1.125-0.45c-0.425-3.448-1.244-10.48-1.125-11.020s1.399-0.875 2.024-0.9l-0.225-1.124c-2.879 0.48-3.224 1.424-3.149 2.699l0.3 3.224h-7.197v-2.999h-1.124v3.374l-7.197 6.822zM14.672 19.456v5.697h-6.222l6.222-5.697z"></path>
<path fill="#0e1821" style="fill: var(--color5, #0e1821)" d="M12.425 25.904c0 2.94-2.383 5.323-5.323 5.323s-5.323-2.383-5.323-5.323 2.383-5.323 5.323-5.323c2.94 0 5.323 2.383 5.323 5.323zM3.21 25.904c0 2.15 1.743 3.892 3.892 3.892s3.892-1.742 3.892-3.892c0-2.15-1.743-3.892-3.892-3.892s-3.892 1.743-3.892 3.892z"></path>
<path fill="none" stroke="#0e1821" style="stroke: var(--color5, #0e1821)" stroke-linejoin="miter" stroke-linecap="butt" stroke-miterlimit="4" stroke-width="0.4801" d="M12.483 25.904c0 2.973-2.41 5.382-5.382 5.382s-5.382-2.41-5.382-5.382c0-2.973 2.41-5.382 5.382-5.382s5.382 2.41 5.382 5.382z"></path>
<path fill="none" stroke="#0e1821" style="stroke: var(--color5, #0e1821)" stroke-linejoin="miter" stroke-linecap="butt" stroke-miterlimit="4" stroke-width="0.4801" d="M10.833 25.904c0 2.062-1.671 3.733-3.733 3.733s-3.733-1.671-3.733-3.733c0-2.062 1.671-3.733 3.733-3.733s3.733 1.671 3.733 3.733z"></path>
<path fill="#f15152" style="fill: var(--color7, #f15152); stroke: var(--color5, #0e1821)" stroke="#0e1821" stroke-linejoin="miter" stroke-linecap="butt" stroke-miterlimit="4" stroke-width="0.4801" d="M8.436 25.903c0 0.737-0.597 1.334-1.334 1.334s-1.334-0.597-1.334-1.334c0-0.737 0.597-1.334 1.334-1.334s1.334 0.597 1.334 1.334z"></path>
<path fill="#0e1821" style="fill: var(--color5, #0e1821)" d="M30.266 25.904c0 2.94-2.383 5.323-5.323 5.323s-5.323-2.383-5.323-5.323c0-2.94 2.383-5.323 5.323-5.323s5.323 2.383 5.323 5.323zM21.052 25.904c0 2.15 1.743 3.892 3.892 3.892s3.892-1.742 3.892-3.892-1.743-3.892-3.892-3.892c-2.149 0-3.892 1.743-3.892 3.892z"></path>
<path fill="none" stroke="#0e1821" style="stroke: var(--color5, #0e1821)" stroke-linejoin="miter" stroke-linecap="butt" stroke-miterlimit="4" stroke-width="0.4801" d="M30.325 25.904c0 2.973-2.41 5.382-5.382 5.382s-5.382-2.41-5.382-5.382c0-2.973 2.41-5.382 5.382-5.382s5.382 2.41 5.382 5.382z"></path>
<path fill="none" stroke="#0e1821" style="stroke: var(--color5, #0e1821)" stroke-linejoin="miter" stroke-linecap="butt" stroke-miterlimit="4" stroke-width="0.4801" d="M28.677 25.904c0 2.062-1.671 3.733-3.733 3.733s-3.733-1.671-3.733-3.733c0-2.062 1.671-3.733 3.733-3.733s3.733 1.671 3.733 3.733z"></path>
<path fill="#f15152" style="fill: var(--color7, #f15152); stroke: var(--color5, #0e1821)" stroke="#0e1821" stroke-linejoin="miter" stroke-linecap="butt" stroke-miterlimit="4" stroke-width="0.4801" d="M26.278 25.903c0 0.737-0.597 1.334-1.334 1.334s-1.334-0.597-1.334-1.334c0-0.737 0.597-1.334 1.334-1.334s1.334 0.597 1.334 1.334z"></path>
<path fill="#2a5275" style="fill: var(--color2, #2a5275); stroke: var(--color5, #0e1821)" stroke="#0e1821" stroke-linejoin="miter" stroke-linecap="butt" stroke-miterlimit="4" stroke-width="0.4801" d="M17.132 25.379c0 1.027-0.832 1.859-1.859 1.859s-1.859-0.832-1.859-1.859c0-1.027 0.832-1.859 1.859-1.859s1.859 0.832 1.859 1.859z"></path>
<path fill="none" stroke="#0e1821" style="stroke: var(--color5, #0e1821)" stroke-linejoin="miter" stroke-linecap="round" stroke-miterlimit="4" stroke-width="0.3201" d="M15.283 25.39v3.278"></path>
<path fill="none" stroke="#0e1821" style="stroke: var(--color5, #0e1821)" stroke-linejoin="miter" stroke-linecap="round" stroke-miterlimit="4" stroke-width="0.4801" d="M15.932 28.618h-1.319"></path>
<path fill="#f15152" style="fill: var(--color7, #f15152); stroke: var(--color5, #0e1821)" stroke="#0e1821" stroke-linejoin="miter" stroke-linecap="butt" stroke-miterlimit="4" stroke-width="0.4801" d="M28.227 11.736c0 0.695-0.564 1.259-1.259 1.259s-1.259-0.564-1.259-1.259c0-0.695 0.564-1.259 1.259-1.259s1.259 0.564 1.259 1.259z"></path>
<path fill="none" stroke="#0e1821" style="stroke: var(--color5, #0e1821)" stroke-linejoin="miter" stroke-linecap="butt" stroke-miterlimit="4" stroke-width="0.4801" d="M5.678 9.786v5.177c0 0.619 0.502 1.12 1.12 1.12h8.026"></path>
<path fill="#fff" style="fill: var(--color6, #fff); stroke: var(--color5, #0e1821)" stroke="#0e1821" stroke-linejoin="miter" stroke-linecap="butt" stroke-miterlimit="4" stroke-width="0.4801" d="M24.928 6.037c0 2.848-2.309 5.158-5.158 5.158s-5.158-2.309-5.158-5.158c0-2.848 2.309-5.158 5.158-5.158s5.158 2.309 5.158 5.158z"></path>
<path fill="#f15152" style="fill: var(--color7, #f15152)" d="M18.58 2.461c0.015-0.050 0.045-0.093 0.087-0.124s0.092-0.048 0.144-0.048h1.919c0.038 0 0.076 0.009 0.109 0.026s0.063 0.042 0.085 0.073c0.022 0.031 0.037 0.066 0.043 0.104s0.002 0.076-0.010 0.112l-0.854 2.553h1.826c0.045-0 0.089 0.013 0.127 0.036s0.069 0.058 0.088 0.098c0.020 0.040 0.028 0.085 0.023 0.13s-0.022 0.087-0.049 0.122l-3.358 4.301c-0.034 0.044-0.083 0.075-0.138 0.087s-0.112 0.004-0.162-0.021c-0.050-0.026-0.089-0.068-0.111-0.12s-0.024-0.109-0.008-0.163l0.864-2.797h-1.594c-0.037 0-0.074-0.009-0.107-0.025s-0.062-0.041-0.085-0.071c-0.022-0.030-0.038-0.064-0.044-0.101s-0.005-0.074 0.006-0.11l1.199-4.062zM18.99 2.767l-1.058 3.584h1.599c0.038 0 0.075 0.009 0.108 0.026s0.063 0.041 0.085 0.071c0.022 0.030 0.037 0.065 0.044 0.102s0.004 0.075-0.007 0.11l-0.575 1.86 2.254-2.886h-1.669c-0.038-0-0.075-0.009-0.109-0.026s-0.063-0.042-0.085-0.073c-0.022-0.031-0.037-0.066-0.043-0.104s-0.003-0.076 0.009-0.112l0.854-2.553h-1.407z"></path>
<path fill="#f15152" style="fill: var(--color7, #f15152); stroke: var(--color5, #0e1821)" stroke="#0e1821" stroke-linejoin="miter" stroke-linecap="butt" stroke-miterlimit="4" stroke-width="0.4801" d="M5.017 8.827h1.319v0.629c0 0.133-0.107 0.24-0.24 0.24h-0.839c-0.133 0-0.24-0.107-0.24-0.24v-0.629z"></path>
<path fill="#f15152" style="fill: var(--color7, #f15152); stroke: var(--color5, #0e1821)" stroke="#0e1821" stroke-linejoin="miter" stroke-linecap="butt" stroke-miterlimit="4" stroke-width="0.4801" d="M4.267 6.727h2.818v1.829c0 0.133-0.107 0.24-0.24 0.24h-2.338c-0.133 0-0.24-0.107-0.24-0.24v-1.829z"></path>
<path fill="none" stroke="#0e1821" style="stroke: var(--color5, #0e1821)" stroke-linejoin="miter" stroke-linecap="round" stroke-miterlimit="4" stroke-width="0.4801" d="M4.838 6.398v-0.869"></path>
<path fill="none" stroke="#0e1821" style="stroke: var(--color5, #0e1821)" stroke-linejoin="miter" stroke-linecap="round" stroke-miterlimit="4" stroke-width="0.4801" d="M6.487 6.398v-0.869"></path>
<path fill="#fff" style="fill: var(--color6, #fff); stroke: var(--color5, #0e1821)" stroke="#0e1821" stroke-linejoin="round" stroke-linecap="round" stroke-miterlimit="4" stroke-width="0.4801" d="M18.197 14.359h-5.547c-0.6-0.075-0.732-0.264-0.9-0.6-0.15-0.3-0.075-0.975 0.075-1.274 0.181-0.361 0.6-0.608 0.9-0.675 0.675-0.15 1.424 0 2.024 0.3 0.474 0.237 0.85 0.868 1.274 0.975 0.3 0.075 2.099 0.075 2.399 0.225s0.375 0.85-0.225 1.050z"></path>
</symbol>
<symbol id="electric-scooters-icon" viewBox="0 0 32 32">
<path fill="#4878a6" style="fill: var(--color1, #4878a6); stroke: var(--color5, #0e1821)" stroke="#0e1821" stroke-linejoin="round" stroke-linecap="round" stroke-miterlimit="4" stroke-width="0.4801" d="M24.69 23.216h-8.161v-2.523h4.163c1.061 0 1.92-0.86 1.92-1.92v-9.653h2.077v14.096z"></path>
<path fill="#4878a6" style="fill: var(--color1, #4878a6); stroke: var(--color5, #0e1821)" stroke="#0e1821" stroke-linejoin="round" stroke-linecap="round" stroke-miterlimit="4" stroke-width="0.4801" d="M30.841 20.679c-0.645-3.772-4.304-4.785-6.151-4.808v5.49h5.546c0.371 0 0.667-0.316 0.605-0.682z"></path>
<path fill="#0e1821" style="fill: var(--color5, #0e1821)" d="M12.968 23.884c0 2.213-1.794 4.006-4.006 4.006s-4.006-1.794-4.006-4.006c0-2.213 1.794-4.006 4.006-4.006s4.006 1.794 4.006 4.006zM6.888 23.884c0 1.145 0.928 2.073 2.073 2.073s2.073-0.928 2.073-2.073c0-1.145-0.928-2.073-2.073-2.073s-2.073 0.928-2.073 2.073z"></path>
<path fill="#fff" style="fill: var(--color6, #fff); stroke: var(--color5, #0e1821)" stroke="#0e1821" stroke-linejoin="miter" stroke-linecap="butt" stroke-miterlimit="4" stroke-width="0.4801" d="M10.948 23.884c0 1.097-0.889 1.986-1.986 1.986s-1.986-0.889-1.986-1.986c0-1.097 0.889-1.986 1.986-1.986s1.986 0.889 1.986 1.986z"></path>
<path fill="none" stroke="#0e1821" style="stroke: var(--color5, #0e1821)" stroke-linejoin="miter" stroke-linecap="butt" stroke-miterlimit="4" stroke-width="0.4801" d="M12.728 23.884c0 2.080-1.686 3.766-3.766 3.766s-3.766-1.686-3.766-3.766c0-2.080 1.686-3.766 3.766-3.766s3.766 1.686 3.766 3.766z"></path>
<path fill="#0e1821" style="fill: var(--color5, #0e1821)" d="M30.774 23.884c0 2.213-1.794 4.006-4.006 4.006s-4.006-1.794-4.006-4.006c0-2.213 1.794-4.006 4.006-4.006s4.006 1.794 4.006 4.006zM24.695 23.884c0 1.145 0.928 2.073 2.073 2.073s2.073-0.928 2.073-2.073c0-1.145-0.928-2.073-2.073-2.073s-2.073 0.928-2.073 2.073z"></path>
<path fill="#fff" style="fill: var(--color6, #fff); stroke: var(--color5, #0e1821)" stroke="#0e1821" stroke-linejoin="miter" stroke-linecap="butt" stroke-miterlimit="4" stroke-width="0.4801" d="M28.752 23.884c0 1.097-0.889 1.986-1.986 1.986s-1.986-0.889-1.986-1.986c0-1.097 0.889-1.986 1.986-1.986s1.986 0.889 1.986 1.986z"></path>
<path fill="none" stroke="#0e1821" style="stroke: var(--color5, #0e1821)" stroke-linejoin="miter" stroke-linecap="butt" stroke-miterlimit="4" stroke-width="0.4801" d="M30.534 23.884c0 2.080-1.686 3.766-3.766 3.766s-3.766-1.686-3.766-3.766c0-2.080 1.686-3.766 3.766-3.766s3.766 1.686 3.766 3.766z"></path>
<path fill="none" stroke="#0e1821" style="stroke: var(--color5, #0e1821)" stroke-linejoin="miter" stroke-linecap="round" stroke-miterlimit="4" stroke-width="0.4801" d="M1.041 27.65h30.086"></path>
<path fill="#fbb13c" style="fill: var(--color4, #fbb13c); stroke: var(--color5, #0e1821)" stroke="#0e1821" stroke-linejoin="miter" stroke-linecap="butt" stroke-miterlimit="4" stroke-width="0.4801" d="M3.528 16.91c0 0.687-0.557 1.244-1.244 1.244s-1.244-0.557-1.244-1.244c0-0.687 0.557-1.244 1.244-1.244s1.244 0.557 1.244 1.244z"></path>
<path fill="#2a5275" style="fill: var(--color2, #2a5275); stroke: var(--color5, #0e1821)" stroke="#0e1821" stroke-linejoin="miter" stroke-linecap="butt" stroke-miterlimit="4" stroke-width="0.4801" d="M2.228 18.858c0-2.828 2.293-5.121 5.121-5.121h9.237v9.461h-13.798c-0.309 0-0.56-0.251-0.56-0.56v-3.78z"></path>
<path fill="#4878a6" style="fill: var(--color1, #4878a6); stroke: var(--color5, #0e1821)" stroke="#0e1821" stroke-linejoin="miter" stroke-linecap="butt" stroke-miterlimit="4" stroke-width="0.4801" d="M3.711 20.84c0-1.547 1.254-2.8 2.801-2.8h6.784c0.751 0 1.36 0.609 1.36 1.36v3.798h-10.945v-2.358z"></path>
<path fill="#f15152" style="fill: var(--color7, #f15152); stroke: var(--color5, #0e1821)" stroke="#0e1821" stroke-linejoin="miter" stroke-linecap="butt" stroke-miterlimit="4" stroke-width="0.4801" d="M3.414 12.607c0-0.605 0.49-1.095 1.095-1.095h11.722c0.605 0 1.095 0.49 1.095 1.095s-0.49 1.095-1.095 1.095h-11.722c-0.605 0-1.095-0.49-1.095-1.095z"></path>
<path fill="#4878a6" style="fill: var(--color1, #4878a6); stroke: var(--color5, #0e1821)" stroke="#0e1821" stroke-linejoin="miter" stroke-linecap="butt" stroke-miterlimit="4" stroke-width="0.4801" d="M20.181 6.672c0-1.343 1.088-2.431 2.431-2.431h3.616c0.575 0 1.040 0.466 1.040 1.040v2.781c0 0.575-0.466 1.040-1.040 1.040h-3.616c-1.342 0-2.431-1.088-2.431-2.431z"></path>
<path fill="#2a5275" style="fill: var(--color2, #2a5275); stroke: var(--color5, #0e1821)" stroke="#0e1821" stroke-linejoin="miter" stroke-linecap="butt" stroke-miterlimit="4" stroke-width="0.4801" d="M18.234 6.021h4.748c0.482 0 0.873 0.391 0.873 0.873v0c0 0.482-0.391 0.873-0.873 0.873h-4.748c-0.482 0-0.873-0.391-0.873-0.873v0c0-0.482 0.391-0.873 0.873-0.873z"></path>
<path fill="#4878a6" style="fill: var(--color1, #4878a6); stroke: var(--color5, #0e1821)" stroke="#0e1821" stroke-linejoin="round" stroke-linecap="round" stroke-miterlimit="4" stroke-width="0.4801" d="M28.884 4.982l-1.596 0.565-0.006 2.33 1.611 0.264-0.009-3.159z"></path>
<path fill="#fbb13c" style="fill: var(--color4, #fbb13c); stroke: var(--color5, #0e1821)" stroke="#0e1821" stroke-linejoin="miter" stroke-linecap="butt" stroke-miterlimit="4" stroke-width="0.4801" d="M30.011 6.821c-0.086 0.526-0.582 0.882-1.108 0.796s-0.882-0.582-0.796-1.108c0.086-0.526 0.582-0.882 1.108-0.796s0.882 0.582 0.796 1.108z"></path>
</symbol>
<symbol id="segways-icon" viewBox="0 0 32 32">
<path fill="#4878a6" style="fill: var(--color1, #4878a6); stroke: var(--color9, #070c11)" stroke="#070c11" stroke-linejoin="miter" stroke-linecap="butt" stroke-miterlimit="4" stroke-width="0.4638" d="M15.285 2.717h1.501v17.497h-1.501v-17.497z"></path>
<path fill="#070c11" style="fill: var(--color9, #070c11); stroke: var(--color9, #070c11)" stroke="#070c11" stroke-linejoin="miter" stroke-linecap="butt" stroke-miterlimit="4" stroke-width="0.4638" d="M4.739 19.837c1.151 0 2.083 0.933 2.083 2.083v7.718c0 1.151-0.933 2.083-2.083 2.083s-2.083-0.933-2.083-2.083v-7.718c0-1.151 0.933-2.083 2.083-2.083z"></path>
<path fill="#fff" style="fill: var(--color6, #fff)" d="M7.054 26.34h-1.401c-0.854 0-1.546-0.692-1.546-1.546v-5.102c0.201-0.057 0.413-0.087 0.631-0.087 1.279 0 2.315 1.037 2.315 2.315v4.42z"></path>
<path fill="#070c11" style="fill: var(--color9, #070c11)" d="M7.054 26.34v0.464h0.464v-0.464h-0.464zM4.107 19.692l-0.126-0.446-0.338 0.096v0.351h0.464zM7.054 25.876h-1.401v0.927h1.401v-0.927zM5.653 25.876c-0.598 0-1.082-0.485-1.082-1.082h-0.928c0 1.11 0.9 2.010 2.010 2.010v-0.927zM4.571 24.794v-5.102h-0.928v5.102h0.928zM4.234 20.138c0.16-0.045 0.329-0.070 0.505-0.070v-0.928c-0.262 0-0.516 0.036-0.758 0.105l0.252 0.892zM4.739 20.068c1.023 0 1.851 0.829 1.851 1.852h0.928c0-1.535-1.244-2.779-2.779-2.779v0.928zM6.59 21.92v4.42h0.928v-4.42h-0.928z"></path>
<path fill="#070c11" style="fill: var(--color9, #070c11); stroke: var(--color9, #070c11)" stroke="#070c11" stroke-linejoin="miter" stroke-linecap="butt" stroke-miterlimit="4" stroke-width="0.4638" d="M27.471 19.836c1.151 0 2.083 0.933 2.083 2.083v7.718c0 1.151-0.933 2.083-2.083 2.083s-2.083-0.933-2.083-2.083v-7.718c0-1.151 0.933-2.083 2.083-2.083z"></path>
<path fill="#fff" style="fill: var(--color6, #fff)" d="M25.155 26.34h1.401c0.854 0 1.546-0.692 1.546-1.546v-5.102c-0.201-0.057-0.413-0.087-0.631-0.087-1.279 0-2.315 1.037-2.315 2.315v4.42z"></path>
<path fill="#070c11" style="fill: var(--color9, #070c11)" d="M25.155 26.34v0.464h-0.464v-0.464h0.464zM28.102 19.692l0.126-0.446 0.337 0.096v0.351h-0.464zM25.155 25.876h1.401v0.927h-1.401v-0.927zM26.556 25.876c0.598 0 1.082-0.485 1.082-1.082h0.927c0 1.11-0.9 2.010-2.010 2.010v-0.927zM27.638 24.794v-5.102h0.927v5.102h-0.927zM27.975 20.138c-0.16-0.045-0.329-0.070-0.505-0.070v-0.928c0.262 0 0.516 0.036 0.758 0.105l-0.253 0.892zM27.47 20.068c-1.023 0-1.852 0.829-1.852 1.852h-0.927c0-1.535 1.244-2.779 2.779-2.779v0.928zM25.619 21.92v4.42h-0.927v-4.42h0.927z"></path>
<path fill="none" stroke="#070c11" style="stroke: var(--color9, #070c11)" stroke-linejoin="miter" stroke-linecap="butt" stroke-miterlimit="4" stroke-width="0.4638" d="M6.635 28.212h18.663"></path>
<path fill="#2a5275" style="fill: var(--color2, #2a5275)" d="M16.036 19.744c-1.162 0-2.105 0.942-2.105 2.105v1.684h-7.297v2.806h18.943v-2.806h-7.437v-1.684c0-1.162-0.942-2.105-2.105-2.105z"></path>
<path fill="#070c11" style="fill: var(--color9, #070c11)" d="M13.931 23.533v0.464h0.464v-0.464h-0.464zM6.635 23.533v-0.464h-0.464v0.464h0.464zM6.635 26.339h-0.464v0.464h0.464v-0.464zM25.578 26.339v0.464h0.464v-0.464h-0.464zM25.578 23.533h0.464v-0.464h-0.464v0.464zM18.141 23.533h-0.464v0.464h0.464v-0.464zM14.395 21.849c0-0.906 0.735-1.641 1.641-1.641v-0.927c-1.419 0-2.569 1.15-2.569 2.569h0.928zM14.395 23.533v-1.684h-0.928v1.684h0.928zM6.635 23.997h7.297v-0.928h-7.297v0.928zM7.099 26.339v-2.806h-0.928v2.806h0.928zM25.578 25.875h-18.943v0.928h18.943v-0.928zM25.114 23.533v2.806h0.928v-2.806h-0.928zM18.141 23.997h7.437v-0.928h-7.437v0.928zM17.677 21.849v1.684h0.928v-1.684h-0.928zM16.036 20.208c0.906 0 1.641 0.735 1.641 1.641h0.928c0-1.419-1.15-2.569-2.569-2.569v0.927z"></path>
<path fill="#4878a6" style="fill: var(--color1, #4878a6); stroke: var(--color9, #070c11)" stroke="#070c11" stroke-linejoin="miter" stroke-linecap="butt" stroke-miterlimit="4" stroke-width="0.4638" d="M9.651 0.893h12.769c0.298 0 0.54 0.242 0.54 0.54v0c0 0.298-0.242 0.54-0.54 0.54h-12.769c-0.298 0-0.54-0.242-0.54-0.54v0c0-0.298 0.242-0.54 0.54-0.54z"></path>
<path fill="#f15152" style="fill: var(--color7, #f15152); stroke: var(--color9, #070c11)" stroke="#070c11" stroke-linejoin="miter" stroke-linecap="butt" stroke-miterlimit="4" stroke-width="0.4638" d="M14.702 0.192h2.666c0.686 0 1.241 0.556 1.241 1.241s-0.556 1.241-1.241 1.241h-2.666c-0.686 0-1.241-0.556-1.241-1.241s0.556-1.241 1.241-1.241z"></path>
<path fill="#f15152" style="fill: var(--color7, #f15152); stroke: var(--color9, #070c11)" stroke="#070c11" stroke-linejoin="miter" stroke-linecap="butt" stroke-miterlimit="4" stroke-width="0.4638" d="M17.629 11.326c0 0.957-0.776 1.733-1.733 1.733s-1.733-0.776-1.733-1.733c0-0.957 0.776-1.733 1.733-1.733s1.733 0.776 1.733 1.733z"></path>
<path fill="#fff" style="fill: var(--color6, #fff); stroke: var(--color9, #070c11)" stroke="#070c11" stroke-linejoin="miter" stroke-linecap="butt" stroke-miterlimit="4" stroke-width="0.4638" d="M6.83 26.048h18.551v2.164h-18.551v-2.164z"></path>
</symbol>
<symbol id="unicycles-icon" viewBox="0 0 32 32">
<path fill="#2a5275" style="fill: var(--color2, #2a5275); stroke: var(--color5, #0e1821)" stroke="#0e1821" stroke-linejoin="round" stroke-linecap="round" stroke-miterlimit="4" stroke-width="0.4801" d="M0.961 18.403h9.042v5.041h-0.8c-1.149 0-2.080-0.931-2.080-2.080 0-0.575-0.466-1.040-1.040-1.040h-4.321c-0.707 0-1.28-0.573-1.28-1.28v-0.16c0-0.265 0.215-0.48 0.48-0.48z"></path>
<path fill="#2a5275" style="fill: var(--color2, #2a5275); stroke: var(--color5, #0e1821)" stroke="#0e1821" stroke-linejoin="round" stroke-linecap="round" stroke-miterlimit="4" stroke-width="0.4801" d="M31.047 18.403h-9.042v5.041h0.8c1.149 0 2.080-0.931 2.080-2.080 0-0.575 0.466-1.040 1.040-1.040h4.321c0.707 0 1.28-0.573 1.28-1.28v-0.16c0-0.265-0.215-0.48-0.48-0.48z"></path>
<path fill="#0e1821" style="fill: var(--color5, #0e1821); stroke: var(--color5, #0e1821)" stroke="#0e1821" stroke-linejoin="miter" stroke-linecap="butt" stroke-miterlimit="4" stroke-width="0.4801" d="M16.004 16.723c1.326 0 2.401 1.075 2.401 2.401v8.802c0 1.326-1.075 2.401-2.401 2.401s-2.401-1.075-2.401-2.401v-8.802c0-1.326 1.075-2.401 2.401-2.401z"></path>
<path fill="none" stroke="#0e1821" style="stroke: var(--color5, #0e1821)" stroke-linejoin="miter" stroke-linecap="butt" stroke-miterlimit="4" stroke-width="0.4801" d="M10.963 25.605c-1.227-2.547-2.24-6.322-2.24-10.096 0-7.858 3.26-14.229 7.281-14.229s7.282 6.37 7.282 14.229c0 3.866-0.96 7.532-2.24 10.096"></path>
<path fill="#4878a6" style="fill: var(--color1, #4878a6); stroke: var(--color5, #0e1821)" stroke="#0e1821" stroke-linejoin="miter" stroke-linecap="butt" stroke-miterlimit="4" stroke-width="0.4801" d="M8.642 15.523c0-4.8 1.277-9.014 3.201-11.534v21.136c0 0.309-0.251 0.56-0.56 0.56-0.207 0-0.393-0.11-0.485-0.285-1.329-2.53-2.155-6.017-2.155-9.877z"></path>
<path fill="#4878a6" style="fill: var(--color1, #4878a6); stroke: var(--color5, #0e1821)" stroke="#0e1821" stroke-linejoin="miter" stroke-linecap="butt" stroke-miterlimit="4" stroke-width="0.4801" d="M20.166 25.125v-21.136c1.923 2.52 3.201 6.735 3.201 11.534 0 3.86-0.827 7.347-2.155 9.877-0.092 0.175-0.278 0.285-0.485 0.285-0.309 0-0.56-0.251-0.56-0.56z"></path>
<path fill="#f15152" style="fill: var(--color7, #f15152)" d="M14.814 6.264c0.016-0.053 0.048-0.099 0.092-0.132s0.098-0.051 0.153-0.051h2.048c0.041 0 0.081 0.010 0.117 0.028s0.067 0.045 0.091 0.078c0.024 0.033 0.039 0.071 0.045 0.111s0.003 0.081-0.010 0.119l-0.912 2.725h1.949c0.048-0 0.095 0.013 0.136 0.039s0.073 0.061 0.095 0.104c0.021 0.043 0.030 0.091 0.025 0.138s-0.023 0.093-0.053 0.13l-3.585 4.591c-0.037 0.047-0.089 0.080-0.148 0.093s-0.12 0.005-0.173-0.023c-0.053-0.027-0.095-0.073-0.118-0.128s-0.026-0.117-0.008-0.174l0.922-2.985h-1.702c-0.040 0-0.079-0.009-0.115-0.027s-0.067-0.043-0.091-0.075c-0.024-0.032-0.040-0.069-0.047-0.108s-0.005-0.079 0.006-0.117l1.28-4.336zM15.251 6.591l-1.13 3.826h1.706c0.040 0 0.080 0.009 0.115 0.027s0.067 0.044 0.091 0.076 0.040 0.069 0.046 0.109c0.007 0.039 0.004 0.080-0.008 0.118l-0.614 1.986 2.406-3.081h-1.781c-0.041-0-0.081-0.010-0.117-0.028s-0.067-0.045-0.091-0.078-0.039-0.071-0.045-0.111c-0.006-0.040-0.003-0.081 0.010-0.119l0.912-2.725h-1.501z"></path>
</symbol>
<symbol id="electric-samokat-icon" viewBox="0 0 32 32">
<path fill="#0e1821" style="fill: var(--color5, #0e1821)" d="M8.802 25.605c0 2.386-1.935 4.321-4.321 4.321s-4.321-1.934-4.321-4.321c0-2.386 1.935-4.321 4.321-4.321s4.321 1.934 4.321 4.321zM2.245 25.605c0 1.235 1.001 2.236 2.236 2.236s2.236-1.001 2.236-2.236c0-1.235-1.001-2.236-2.236-2.236s-2.236 1.001-2.236 2.236z"></path>
<path fill="none" stroke="#0e1821" style="stroke: var(--color5, #0e1821)" stroke-linejoin="miter" stroke-linecap="butt" stroke-miterlimit="4" stroke-width="0.4801" d="M6.641 25.606c0 1.193-0.967 2.16-2.16 2.16s-2.16-0.967-2.16-2.16c0-1.193 0.967-2.16 2.16-2.16s2.16 0.967 2.16 2.16z"></path>
<path fill="none" stroke="#0e1821" style="stroke: var(--color5, #0e1821)" stroke-linejoin="miter" stroke-linecap="butt" stroke-miterlimit="4" stroke-width="0.4801" d="M8.562 25.605c0 2.254-1.827 4.081-4.081 4.081s-4.081-1.827-4.081-4.081c0-2.254 1.827-4.081 4.081-4.081s4.081 1.827 4.081 4.081z"></path>
<path fill="#0e1821" style="fill: var(--color5, #0e1821)" d="M31.847 25.605c0 2.386-1.934 4.321-4.321 4.321s-4.321-1.934-4.321-4.321c0-2.386 1.934-4.321 4.321-4.321s4.321 1.934 4.321 4.321zM25.29 25.605c0 1.235 1.001 2.236 2.236 2.236s2.236-1.001 2.236-2.236c0-1.235-1.001-2.236-2.236-2.236s-2.236 1.001-2.236 2.236z"></path>
<path fill="none" stroke="#0e1821" style="stroke: var(--color5, #0e1821)" stroke-linejoin="miter" stroke-linecap="butt" stroke-miterlimit="4" stroke-width="0.4801" d="M29.686 25.606c0 1.193-0.967 2.16-2.16 2.16s-2.16-0.967-2.16-2.16c0-1.193 0.967-2.16 2.16-2.16s2.16 0.967 2.16 2.16z"></path>
<path fill="none" stroke="#0e1821" style="stroke: var(--color5, #0e1821)" stroke-linejoin="miter" stroke-linecap="butt" stroke-miterlimit="4" stroke-width="0.4801" d="M31.607 25.605c0 2.254-1.827 4.081-4.081 4.081s-4.081-1.827-4.081-4.081c0-2.254 1.827-4.081 4.081-4.081s4.081 1.827 4.081 4.081z"></path>
<path fill="#f15152" style="fill: var(--color7, #f15152); stroke: var(--color5, #0e1821)" stroke="#0e1821" stroke-linejoin="round" stroke-linecap="round" stroke-miterlimit="4" stroke-width="0.4801" d="M22.245 22.564h-11.842l0.24 3.121h9.042l2.561-3.121z"></path>
<path fill="#2a5275" style="fill: var(--color2, #2a5275); stroke: var(--color5, #0e1821)" stroke="#0e1821" stroke-linejoin="miter" stroke-linecap="butt" stroke-miterlimit="4" stroke-width="0.4801" d="M4.834 18.651l0.010 0.002 0.010 0c3.328 0.176 6.037 2.69 6.514 5.93 0.060 0.41-0.281 0.782-0.746 0.782-0.444 0-0.831-0.37-0.934-0.862-0.508-2.409-2.645-4.218-5.205-4.219l-2.802-0.040c-0.442 0-0.8-0.358-0.8-0.8s0.358-0.8 0.8-0.8h3.041c0.038 0 0.076 0.003 0.113 0.008z"></path>
<path fill="#4878a6" style="fill: var(--color1, #4878a6); stroke: var(--color5, #0e1821)" stroke="#0e1821" stroke-linejoin="miter" stroke-linecap="butt" stroke-miterlimit="4" stroke-width="0.4801" d="M23.293 3.961l-0.034-0.2h-1.894v-1.12h2.641c0.099 0 0.185 0.060 0.221 0.147l1.244 7.22-1.121 0.19-1.057-6.237z"></path>
<path fill="#4878a6" style="fill: var(--color1, #4878a6)" d="M26.501 16.357c-0.499-0.358-1.194-0.244-1.552 0.256l-5.645 7.873h-14.662c-0.619 0-1.12 0.502-1.12 1.12s0.502 1.12 1.12 1.12h15.203c0.331 0 0.628-0.143 0.833-0.372 0.049-0.047 0.095-0.099 0.136-0.157l5.943-8.288c0.358-0.499 0.244-1.194-0.256-1.552z"></path>
<path fill="#0e1821" style="fill: var(--color5, #0e1821)" d="M24.949 16.613v0zM26.501 16.357v0zM19.304 24.485v0.48h0.247l0.144-0.2-0.39-0.28zM4.642 24.485v0zM20.678 26.354l-0.332-0.347-0.013 0.012-0.012 0.014 0.357 0.321zM20.814 26.198v0zM26.757 17.909v0zM25.339 16.892c0.203-0.284 0.599-0.349 0.882-0.145l0.559-0.78c-0.715-0.512-1.71-0.348-2.222 0.366l0.78 0.559zM19.694 24.765l5.645-7.873-0.78-0.559-5.645 7.873 0.78 0.559zM4.642 24.965h14.662v-0.96h-14.662v0.96zM4.002 25.605c0-0.354 0.287-0.64 0.64-0.64v-0.96c-0.884 0-1.6 0.716-1.6 1.6h0.96zM4.642 26.246c-0.354 0-0.64-0.287-0.64-0.64h-0.96c0 0.884 0.716 1.6 1.6 1.6v-0.96zM19.845 26.246h-15.203v0.96h15.203v-0.96zM20.321 26.033c-0.118 0.131-0.287 0.212-0.476 0.212v0.96c0.473 0 0.898-0.206 1.19-0.531l-0.714-0.642zM20.424 25.918c-0.024 0.033-0.050 0.063-0.078 0.090l0.664 0.694c0.071-0.067 0.136-0.142 0.194-0.224l-0.78-0.559zM26.367 17.629l-5.943 8.288 0.78 0.559 5.943-8.288-0.78-0.559zM26.221 16.747c0.284 0.203 0.349 0.599 0.145 0.882l0.78 0.559c0.512-0.715 0.349-1.71-0.366-2.222l-0.559 0.78z"></path>
<path fill="#4878a6" style="fill: var(--color1, #4878a6); stroke: var(--color5, #0e1821)" stroke="#0e1821" stroke-linejoin="miter" stroke-linecap="butt" stroke-miterlimit="4" stroke-width="0.4801" d="M24.887 9.946v0c0.475-0.081 0.925 0.239 1.006 0.714l2.458 14.503c0.081 0.475-0.239 0.925-0.714 1.006v0c-0.475 0.081-0.925-0.239-1.006-0.714l-2.458-14.503c-0.081-0.475 0.239-0.925 0.714-1.006z"></path>
<path fill="#2a5275" style="fill: var(--color2, #2a5275); stroke: var(--color5, #0e1821)" stroke="#0e1821" stroke-linejoin="miter" stroke-linecap="butt" stroke-miterlimit="4" stroke-width="0.4801" d="M21.363 3.2v0c0 0.486-0.394 0.88-0.88 0.88h-2.881c-0.486 0-0.88-0.394-0.88-0.88v0c0-0.486 0.394-0.88 0.88-0.88h2.881c0.486 0 0.88 0.394 0.88 0.88z"></path>
<path fill="#4878a6" style="fill: var(--color1, #4878a6); stroke: var(--color5, #0e1821)" stroke="#0e1821" stroke-linejoin="round" stroke-linecap="round" stroke-miterlimit="4" stroke-width="0.4801" d="M26.007 2.801l-1.6 0.88 0.4 2.481h1.76l-0.56-3.361z"></path>
<path fill="#fbb13c" style="fill: var(--color4, #fbb13c)" d="M26.473 5.601l-0.337-2.020c0.109-0.039 0.227-0.060 0.35-0.060 0.574 0 1.040 0.466 1.040 1.040s-0.466 1.040-1.040 1.040c-0.004 0-0.009-0-0.013-0z"></path>
<path fill="#0e1821" style="fill: var(--color5, #0e1821)" d="M26.473 5.601l-0.237 0.039 0.033 0.198 0.201 0.003 0.003-0.24zM26.137 3.581l-0.081-0.226-0.189 0.067 0.033 0.198 0.237-0.039zM26.71 5.561l-0.337-2.020-0.474 0.079 0.337 2.020 0.474-0.079zM26.217 3.807c0.084-0.030 0.174-0.046 0.269-0.046v-0.48c-0.151 0-0.296 0.026-0.431 0.074l0.161 0.452zM26.487 3.761c0.442 0 0.8 0.358 0.8 0.8h0.48c0-0.707-0.573-1.28-1.28-1.28v0.48zM27.287 4.561c0 0.442-0.358 0.8-0.8 0.8v0.48c0.707 0 1.28-0.573 1.28-1.28h-0.48zM26.487 5.361c-0.003 0-0.007-0-0.010-0l-0.006 0.48c0.005 0 0.011 0 0.016 0v-0.48z"></path>
<path fill="#fff" style="fill: var(--color6, #fff); stroke: var(--color5, #0e1821)" stroke="#0e1821" stroke-linejoin="miter" stroke-linecap="butt" stroke-miterlimit="4" stroke-width="0.4801" d="M21.525 15.204c0 3.049-2.472 5.521-5.521 5.521s-5.521-2.472-5.521-5.521c0-3.049 2.472-5.521 5.521-5.521s5.521 2.472 5.521 5.521z"></path>
<path fill="#f15152" style="fill: var(--color7, #f15152)" d="M14.734 11.385c0.016-0.053 0.048-0.099 0.092-0.132s0.098-0.051 0.153-0.051h2.048c0.041 0 0.081 0.010 0.117 0.028s0.067 0.045 0.091 0.078c0.024 0.033 0.039 0.071 0.045 0.111s0.003 0.081-0.010 0.119l-0.912 2.725h1.949c0.048 0 0.095 0.013 0.136 0.039s0.073 0.061 0.095 0.104c0.021 0.043 0.030 0.091 0.025 0.138s-0.023 0.093-0.052 0.13l-3.585 4.591c-0.037 0.047-0.089 0.080-0.148 0.093s-0.12 0.005-0.173-0.023c-0.053-0.027-0.095-0.073-0.118-0.128s-0.026-0.117-0.008-0.174l0.922-2.986h-1.702c-0.040 0-0.079-0.009-0.115-0.027s-0.067-0.043-0.090-0.075c-0.024-0.032-0.040-0.069-0.047-0.108s-0.005-0.079 0.006-0.117l1.28-4.336zM15.171 11.712l-1.13 3.826h1.706c0.040 0 0.080 0.009 0.115 0.027s0.067 0.044 0.091 0.076c0.024 0.032 0.040 0.069 0.046 0.109s0.004 0.080-0.008 0.118l-0.614 1.986 2.406-3.081h-1.781c-0.041-0-0.081-0.010-0.117-0.028s-0.067-0.045-0.091-0.078c-0.024-0.033-0.039-0.071-0.045-0.111s-0.003-0.081 0.010-0.119l0.912-2.725h-1.501z"></path>
</symbol>
<symbol id="gyroboards-icon" viewBox="0 0 32 32">
<path fill="#0e1821" style="fill: var(--color5, #0e1821); stroke: var(--color5, #0e1821)" stroke="#0e1821" stroke-linejoin="miter" stroke-linecap="butt" stroke-miterlimit="4" stroke-width="0.4801" d="M2.961 9.202c1.326 0 2.4 1.075 2.4 2.4v8.802c0 1.326-1.075 2.401-2.401 2.401s-2.401-1.075-2.401-2.401v-8.802c0-1.326 1.075-2.401 2.401-2.401z"></path>
<path fill="#fff" style="fill: var(--color6, #fff)" d="M5.601 16.643h-1.76c-0.884 0-1.6-0.716-1.6-1.6v-5.982c0.229-0.065 0.47-0.099 0.72-0.099 1.458 0 2.641 1.182 2.641 2.641v5.041z"></path>
<path fill="#0e1821" style="fill: var(--color5, #0e1821)" d="M5.601 16.643v0.48h0.48v-0.48h-0.48zM2.24 9.061l-0.131-0.462-0.349 0.099v0.363h0.48zM5.601 16.163h-1.76v0.96h1.76v-0.96zM3.841 16.163c-0.619 0-1.12-0.502-1.12-1.12h-0.96c0 1.149 0.931 2.080 2.080 2.080v-0.96zM2.72 15.043v-5.982h-0.96v5.982h0.96zM2.371 9.523c0.187-0.053 0.384-0.081 0.589-0.081v-0.96c-0.294 0-0.58 0.041-0.851 0.117l0.261 0.924zM2.96 9.442c1.193 0 2.16 0.967 2.16 2.16h0.96c0-1.724-1.397-3.121-3.121-3.121v0.96zM5.121 11.602v5.041h0.96v-5.041h-0.96z"></path>
<path fill="#0e1821" style="fill: var(--color5, #0e1821); stroke: var(--color5, #0e1821)" stroke="#0e1821" stroke-linejoin="miter" stroke-linecap="butt" stroke-miterlimit="4" stroke-width="0.4801" d="M28.887 9.202c1.326 0 2.401 1.075 2.401 2.4v8.802c0 1.326-1.075 2.401-2.401 2.401s-2.401-1.075-2.401-2.401v-8.802c0-1.326 1.075-2.401 2.401-2.401z"></path>
<path fill="#4878a6" style="fill: var(--color1, #4878a6); stroke: var(--color5, #0e1821)" stroke="#0e1821" stroke-linejoin="miter" stroke-linecap="butt" stroke-miterlimit="4" stroke-width="0.4801" d="M5.361 13.682h9.682c0.486 0 0.88 0.394 0.88 0.88v2.721c0 0.84-0.681 1.52-1.52 1.52h-9.042v-5.121z"></path>
<path fill="#fff" style="fill: var(--color6, #fff)" d="M26.245 16.643h1.76c0.884 0 1.6-0.716 1.6-1.6v-5.982c-0.229-0.065-0.471-0.099-0.72-0.099-1.458 0-2.64 1.182-2.64 2.641v5.041z"></path>
<path fill="#0e1821" style="fill: var(--color5, #0e1821)" d="M26.245 16.643v0.48h-0.48v-0.48h0.48zM29.605 9.061l0.131-0.462 0.349 0.099v0.363h-0.48zM26.245 16.163h1.76v0.96h-1.76v-0.96zM28.005 16.163c0.619 0 1.12-0.502 1.12-1.12h0.96c0 1.149-0.931 2.080-2.081 2.080v-0.96zM29.125 15.043v-5.982h0.96v5.982h-0.96zM29.475 9.523c-0.187-0.053-0.384-0.081-0.589-0.081v-0.96c0.294 0 0.58 0.041 0.851 0.117l-0.261 0.924zM28.885 9.442c-1.193 0-2.16 0.967-2.16 2.16h-0.96c0-1.724 1.397-3.121 3.121-3.121v0.96zM26.725 11.602v5.041h-0.96v-5.041h0.96z"></path>
<path fill="#4878a6" style="fill: var(--color1, #4878a6); stroke: var(--color5, #0e1821)" stroke="#0e1821" stroke-linejoin="miter" stroke-linecap="butt" stroke-miterlimit="4" stroke-width="0.4801" d="M26.485 13.682h-9.682c-0.486 0-0.88 0.394-0.88 0.88v2.721c0 0.84 0.681 1.52 1.52 1.52h9.042v-5.121z"></path>
<path fill="none" stroke="#0e1821" style="stroke: var(--color5, #0e1821)" stroke-linejoin="miter" stroke-linecap="butt" stroke-miterlimit="4" stroke-width="0.4801" d="M5.602 16.404h20.644"></path>
<path fill="#fff" style="fill: var(--color6, #fff)" d="M12.322 17.603v0c0 0.265-0.215 0.48-0.48 0.48h-2.561c-0.265 0-0.48-0.215-0.48-0.48v0c0-0.265 0.215-0.48 0.48-0.48h2.561c0.265 0 0.48 0.215 0.48 0.48z"></path>
<path fill="#fff" style="fill: var(--color6, #fff)" d="M23.045 17.603v0c0 0.265-0.215 0.48-0.48 0.48h-2.561c-0.265 0-0.48-0.215-0.48-0.48v0c0-0.265 0.215-0.48 0.48-0.48h2.561c0.265 0 0.48 0.215 0.48 0.48z"></path>
<path fill="none" stroke="#0e1821" style="stroke: var(--color5, #0e1821)" stroke-linejoin="miter" stroke-linecap="round" stroke-miterlimit="4" stroke-width="0.4801" d="M6.961 14.963h7.201"></path>
<path fill="none" stroke="#0e1821" style="stroke: var(--color5, #0e1821)" stroke-linejoin="miter" stroke-linecap="round" stroke-miterlimit="4" stroke-width="0.4801" d="M17.683 14.963h7.201"></path>
</symbol>
<symbol id="burger-menu-icon" viewBox="0 0 32 32">
<path fill="#fff" style="fill: var(--color6, #fff)" d="M5 17c0.552 0 1-0.448 1-1s-0.448-1-1-1c-0.552 0-1 0.448-1 1s0.448 1 1 1z"></path>
<path fill="#fff" style="fill: var(--color6, #fff)" d="M26.724 15h-16.449c-0.705 0-1.276 0.421-1.276 0.94v0.12c0 0.519 0.571 0.94 1.276 0.94h16.449c0.704 0 1.276-0.421 1.276-0.94v-0.12c0-0.519-0.571-0.94-1.276-0.94z"></path>
<path fill="#fff" style="fill: var(--color6, #fff)" d="M26.747 21h-21.493c-0.692 0-1.253 0.421-1.253 0.94v0.12c0 0.519 0.561 0.94 1.253 0.94h21.493c0.692 0 1.253-0.421 1.253-0.94v-0.12c0-0.519-0.561-0.94-1.253-0.94z"></path>
<path fill="#fff" style="fill: var(--color6, #fff)" d="M26.747 9h-21.493c-0.692 0-1.253 0.421-1.253 0.94v0.12c0 0.519 0.561 0.94 1.253 0.94h21.493c0.692 0 1.253-0.421 1.253-0.94v-0.12c0-0.519-0.561-0.94-1.253-0.94z"></path>
</symbol>
<symbol id="basket-icon" viewBox="0 0 34 32">
<path fill="#838688" style="fill: var(--color10, #838688)" d="M11.811 31.525c1.325 0 2.399-1.062 2.399-2.373s-1.074-2.373-2.399-2.373-2.399 1.062-2.399 2.373c0 1.311 1.074 2.373 2.399 2.373z"></path>
<path fill="#838688" style="fill: var(--color10, #838688)" d="M26.383 31.525c1.325 0 2.399-1.062 2.399-2.373s-1.074-2.373-2.399-2.373c-1.325 0-2.398 1.062-2.398 2.373s1.074 2.373 2.398 2.373z"></path>
<path fill="#838688" style="fill: var(--color10, #838688)" d="M32.864 3.422c-0.099-0.121-0.224-0.219-0.366-0.286s-0.297-0.103-0.455-0.104h-17.538c-0.718 0-1.226 0.702-1.002 1.384 0.142 0.433 0.546 0.726 1.002 0.726h16.141l-2.846 11.092h-15.99l-4.872-13.697c-0.053-0.162-0.144-0.309-0.267-0.428s-0.272-0.208-0.437-0.257l-4.371-1.329c-0.134-0.041-0.276-0.055-0.416-0.042s-0.276 0.053-0.4 0.119c-0.251 0.132-0.439 0.356-0.522 0.625s-0.056 0.559 0.077 0.807c0.133 0.248 0.36 0.434 0.632 0.517l3.827 1.16 4.893 13.729-1.748 1.413-0.139 0.137c-0.432 0.493-0.678 1.12-0.693 1.772s0.199 1.29 0.608 1.803c0.291 0.35 0.66 0.627 1.078 0.81s0.874 0.267 1.331 0.244h17.792c0.283 0 0.554-0.111 0.754-0.309s0.312-0.466 0.312-0.746c0-0.28-0.112-0.548-0.312-0.746s-0.471-0.309-0.754-0.309h-17.962c-0.123-0.004-0.242-0.040-0.347-0.103s-0.192-0.152-0.252-0.258-0.091-0.226-0.091-0.347c0-0.122 0.032-0.241 0.093-0.347l2.569-2.109h16.459c0.246 0.006 0.487-0.073 0.682-0.223s0.33-0.362 0.384-0.6l3.379-13.201c0.032-0.157 0.028-0.32-0.012-0.475s-0.116-0.299-0.222-0.421z"></path>
<path fill="#838688" style="fill: var(--color10, #838688)" d="M32.044 3.031c0.157 0.001 0.313 0.037 0.455 0.104s0.267 0.165 0.366 0.286c0.105 0.122 0.181 0.266 0.222 0.421s0.045 0.318 0.012 0.475l-3.379 13.201c-0.054 0.238-0.19 0.45-0.384 0.6s-0.435 0.229-0.682 0.223h-16.459l-2.569 2.109c-0.061 0.106-0.093 0.225-0.093 0.347s0.031 0.241 0.091 0.347 0.147 0.195 0.252 0.258c0.105 0.063 0.225 0.099 0.347 0.103h17.962c0.283 0 0.554 0.111 0.754 0.309s0.312 0.466 0.312 0.746c0 0.28-0.112 0.548-0.312 0.746s-0.471 0.309-0.754 0.309h-17.792c-0.457 0.022-0.913-0.061-1.331-0.244s-0.788-0.46-1.078-0.81c-0.408-0.513-0.623-1.15-0.608-1.803s0.261-1.28 0.693-1.772l0.139-0.137 1.748-1.413-4.893-13.729-3.827-1.16c-0.271-0.083-0.499-0.268-0.632-0.517s-0.161-0.539-0.077-0.807c0.083-0.269 0.271-0.493 0.522-0.625 0.124-0.065 0.26-0.105 0.4-0.119s0.281 0.001 0.416 0.042l4.371 1.329c0.164 0.050 0.314 0.138 0.437 0.257s0.214 0.266 0.267 0.428l4.872 13.697h15.99l2.846-11.092h-16.141c-0.456 0-0.86-0.293-1.002-0.726-0.224-0.682 0.284-1.384 1.002-1.384h17.538zM30.049 5.615h-15.548c-0.661 0-1.247-0.424-1.453-1.052-0.325-0.989 0.412-2.007 1.453-2.007h17.546c0.228 0.002 0.453 0.053 0.659 0.151 0.204 0.097 0.384 0.237 0.527 0.41 0.151 0.176 0.26 0.383 0.318 0.606 0.059 0.225 0.065 0.461 0.018 0.689l-0.002 0.010-3.379 13.201zM30.049 5.615l-2.633 10.143h-15.254l-4.767-13.368c-0.076-0.235-0.209-0.448-0.387-0.621s-0.395-0.301-0.633-0.373l-4.37-1.329c-0.195-0.059-0.399-0.080-0.602-0.061s-0.4 0.077-0.579 0.172c-0.363 0.19-0.635 0.516-0.756 0.905s-0.080 0.809 0.112 1.169c0.193 0.359 0.521 0.628 0.914 0.748l3.587 1.087 4.719 13.184-1.515 1.224-0.168 0.166-0.011 0.013c-0.506 0.576-0.792 1.309-0.81 2.072s0.233 1.508 0.711 2.108l0.006 0.008c0.338 0.407 0.768 0.73 1.255 0.943 0.483 0.211 1.009 0.309 1.537 0.285h17.78c0.41 0 0.803-0.161 1.093-0.448s0.453-0.676 0.453-1.081-0.163-0.795-0.453-1.081c-0.29-0.287-0.683-0.448-1.093-0.448h-17.952c-0.038-0.002-0.075-0.014-0.108-0.033-0.034-0.021-0.063-0.050-0.083-0.085s-0.030-0.074-0.030-0.114c0-0.018 0.002-0.036 0.007-0.054l2.349-1.928h16.281c0.355 0.007 0.702-0.107 0.982-0.323 0.282-0.217 0.479-0.525 0.557-0.87zM14.689 29.152c0 1.573-1.289 2.848-2.878 2.848s-2.878-1.275-2.878-2.848c0-1.573 1.289-2.848 2.878-2.848s2.878 1.275 2.878 2.848zM29.261 29.152c0 1.573-1.289 2.848-2.878 2.848s-2.878-1.275-2.878-2.848c0-1.573 1.288-2.848 2.878-2.848s2.878 1.275 2.878 2.848zM11.811 31.525c1.325 0 2.399-1.062 2.399-2.373s-1.074-2.373-2.399-2.373-2.399 1.062-2.399 2.373c0 1.311 1.074 2.373 2.399 2.373zM26.383 31.525c1.325 0 2.399-1.062 2.399-2.373s-1.074-2.373-2.399-2.373c-1.325 0-2.398 1.062-2.398 2.373s1.074 2.373 2.398 2.373z"></path>
</symbol>
<symbol id="compare-icon" viewBox="0 0 27 32">
<path fill="#838688" style="fill: var(--color10, #838688)" d="M1.6 16c-0.424 0-0.831 0.169-1.131 0.469s-0.469 0.707-0.469 1.131v12.8c0 0.424 0.169 0.831 0.469 1.131s0.707 0.469 1.131 0.469c0.424 0 0.831-0.169 1.131-0.469s0.469-0.707 0.469-1.131v-12.8c0-0.424-0.169-0.831-0.469-1.131s-0.707-0.469-1.131-0.469zM9.6 0c-0.424 0-0.831 0.169-1.131 0.469s-0.469 0.707-0.469 1.131v28.8c0 0.424 0.169 0.831 0.469 1.131s0.707 0.469 1.131 0.469c0.424 0 0.831-0.169 1.131-0.469s0.469-0.707 0.469-1.131v-28.8c0-0.424-0.169-0.831-0.469-1.131s-0.707-0.469-1.131-0.469zM25.6 22.4c-0.424 0-0.831 0.169-1.131 0.469s-0.469 0.707-0.469 1.131v6.4c0 0.424 0.169 0.831 0.469 1.131s0.707 0.469 1.131 0.469c0.424 0 0.831-0.169 1.131-0.469s0.469-0.707 0.469-1.131v-6.4c0-0.424-0.169-0.831-0.469-1.131s-0.707-0.469-1.131-0.469zM17.6 9.6c-0.424 0-0.831 0.169-1.131 0.469s-0.469 0.707-0.469 1.131v19.2c0 0.424 0.169 0.831 0.469 1.131s0.707 0.469 1.131 0.469c0.424 0 0.831-0.169 1.131-0.469s0.469-0.707 0.469-1.131v-19.2c0-0.424-0.169-0.831-0.469-1.131s-0.707-0.469-1.131-0.469z"></path>
</symbol>
<symbol id="favorite-icon" viewBox="0 0 37 32">
<path fill="#838688" style="fill: var(--color10, #838688)" d="M34.063 3.556c-1.885-1.889-4.383-3.043-7.043-3.251s-5.308 0.541-7.464 2.114c-2.262-1.682-5.077-2.445-7.879-2.135s-5.382 1.671-7.221 3.807c-1.839 2.137-2.8 4.891-2.69 7.707s1.284 5.487 3.284 7.474l11.040 11.058c0.924 0.91 2.17 1.42 3.467 1.42s2.542-0.51 3.467-1.42l11.040-11.058c2.076-2.088 3.241-4.913 3.241-7.858s-1.165-5.769-3.241-7.858zM31.556 16.818l-11.040 11.040c-0.126 0.127-0.275 0.228-0.44 0.296s-0.341 0.104-0.52 0.104-0.355-0.035-0.52-0.104c-0.165-0.069-0.314-0.169-0.44-0.296l-11.040-11.093c-1.394-1.425-2.175-3.34-2.175-5.333s0.781-3.908 2.175-5.333c1.421-1.403 3.337-2.189 5.333-2.189s3.913 0.787 5.333 2.189c0.165 0.167 0.362 0.299 0.579 0.389s0.449 0.137 0.684 0.137c0.235 0 0.467-0.046 0.684-0.137s0.413-0.223 0.578-0.389c1.421-1.403 3.337-2.189 5.333-2.189s3.913 0.787 5.333 2.189c1.413 1.407 2.22 3.311 2.246 5.304s-0.729 3.919-2.104 5.362v0.053z"></path>
</symbol>
<symbol id="eye-icon" viewBox="0 0 44 32">
<path fill="none" stroke="#838688" style="stroke: var(--color10, #838688)" stroke-linejoin="round" stroke-linecap="round" stroke-miterlimit="4" stroke-width="4" d="M40.513 13.924c0.948 1.24 0.948 2.914 0 4.152-2.986 3.898-10.15 11.924-18.514 11.924s-15.528-8.026-18.514-11.924c-0.461-0.594-0.712-1.324-0.712-2.076s0.25-1.482 0.712-2.076c2.986-3.898 10.15-11.924 18.514-11.924s15.528 8.026 18.514 11.924v0z"></path>
<path fill="none" stroke="#838688" style="stroke: var(--color10, #838688)" stroke-linejoin="round" stroke-linecap="round" stroke-miterlimit="4" stroke-width="4" d="M22 22c3.314 0 6-2.686 6-6s-2.686-6-6-6c-3.314 0-6 2.686-6 6s2.686 6 6 6z"></path>
</symbol>
<symbol id="search-icon" viewBox="0 0 32 32">
<path fill="none" stroke="#838688" style="stroke: var(--color10, #838688)" stroke-linejoin="round" stroke-linecap="round" stroke-miterlimit="4" stroke-width="2.6667" d="M17.333 25.333c-5.891 0-10.667-4.776-10.667-10.667s4.776-10.667 10.667-10.667c5.891 0 10.667 4.776 10.667 10.667s-4.776 10.667-10.667 10.667z"></path>
<path fill="none" stroke="#838688" style="stroke: var(--color10, #838688)" stroke-linejoin="round" stroke-linecap="round" stroke-miterlimit="4" stroke-width="2.6667" d="M3.999 28.001l5.8-5.8"></path>
</symbol>
<symbol id="logo-icon" viewBox="0 0 127 32">
<path fill="#2a5275" style="fill: var(--color2, #2a5275)" d="M117.912 20.259h4.574l4.283 8.583h-3.117l-0.816-1.445h-5.302l-0.816 1.445h-3.117l4.312-8.583zM95.566 22.282v6.56h2.68v-8.583h-4.37l-4.574 6.358c-0.029 0.087-0.059 0.145-0.117 0.231v-6.589h-2.681v8.583h4.371l4.574-6.358c0.058-0.058 0.088-0.145 0.117-0.202zM120.418 22.196h-0.408l-1.457 2.977h3.292l-1.427-2.977zM101.247 20.259h2.68v3.006h1.399l3.030-3.006h3.671l-4.341 4.104 4.894 4.508h-3.875l-3.379-3.352h-1.399v3.352h-2.68v-8.612zM72.929 20.259h2.681v3.006h5.768v-3.006h2.681v8.583h-2.681v-3.352h-5.768v3.352h-2.681v-8.583zM59.44 20.23l3.962 4.219-3.962 4.393h3.583l2.622-2.89 2.622 2.89h3.584l-3.962-4.393 3.962-4.219h-3.7l-2.506 2.774-2.506-2.774h-3.7zM48.66 28.843v-8.612h9.352v2.081h-6.672v1.214h6.38v2.081h-6.38v1.185h6.672v2.081h-9.352v-0.029zM36.744 22.456v-2.225h10.313v2.225h-3.817v6.387h-2.68v-6.387h-3.817z"></path>
<path fill="#4878a6" style="fill: var(--color1, #4878a6)" d="M111.386 7.485v-3.352h15.412v3.324h-5.71v9.537h-3.992v-9.537h-5.71v0.029zM53.030 4.19v12.861h3.991v-9.017l5.244 9.017h3.263l4.894-9.017v9.017h3.496l1.544-5.549-1.34-0.029 1.544-7.283h-8.041l-3.409 7.196h-0.612l-3.409-7.196h-7.167zM44.349 14.132c1.923 0 3.030-0.029 3.321-0.087s0.466-0.289 0.466-0.694c0-0.491-0.204-0.809-0.641-0.925s-1.486-0.202-3.147-0.202c-3.321 0-5.419-0.231-6.293-0.723s-1.311-1.676-1.311-3.555c0-1.763 0.554-2.861 1.69-3.352 0.874-0.376 2.797-0.549 5.798-0.549 2.68 0 4.37 0.058 5.069 0.202 1.34 0.26 2.156 1.214 2.418 2.89h-7.487c-1.806 0-2.826 0.029-3.117 0.087s-0.408 0.318-0.408 0.722c0 0.434 0.233 0.723 0.699 0.867s1.428 0.202 2.913 0.202c3.292 0 5.39 0.26 6.351 0.78s1.428 1.705 1.428 3.555c0 1.705-0.524 2.803-1.602 3.295-0.932 0.405-2.972 0.607-6.206 0.607-2.476 0-4.079-0.058-4.807-0.173-1.136-0.173-1.923-0.549-2.331-1.185-0.262-0.405-0.437-0.983-0.554-1.763h7.75zM80.796 4.19h6.992l6.41 12.832h-4.662l-1.223-2.168h-7.895l-1.224 2.168h-4.661l0.029-0.058 5.302-7.312-2.419-0.145 3.351-5.318zM84.641 7.080h-0.612l-2.156 4.451h4.924l-2.156-4.451zM94.722 4.133h11.595c1.427 0 2.448 0.26 3.030 0.78 0.641 0.549 0.961 1.561 0.961 2.977 0 1.098-0.145 1.936-0.408 2.456s-0.728 0.925-1.398 1.185c0.729 0.318 1.194 0.636 1.428 0.925 0.233 0.318 0.349 0.867 0.349 1.676v2.89h-3.991v-2.312c0-0.347-0.088-0.607-0.262-0.838-0.234-0.289-0.583-0.462-1.020-0.462h-6.293v3.584h-3.991v-12.861zM98.684 7.485v2.63h6.41c0.437 0 0.758-0.087 0.932-0.289 0.174-0.173 0.291-0.52 0.291-1.011s-0.087-0.838-0.291-1.040c-0.204-0.202-0.496-0.289-0.932-0.289h-6.41z"></path>
<path fill="#4878a6" style="fill: var(--color1, #4878a6)" d="M2.337 6.965l11.945-6.821 13.751 7.861v4.566l-3.991-2.283-9.76-5.607-7.954 4.566-3.991-2.283zM0.531 10.057v4.682l13.984 8.005 3.904-2.457-17.888-10.231z"></path>
<path fill="#2a5275" style="fill: var(--color2, #2a5275)" d="M26.227 24.767l-11.945 6.82-13.751-7.861v-4.566l13.751 7.861 7.954-4.566 3.991 2.312zM17.632 11.011l-3.263-1.879-3.846 2.196 2.447 1.416 15.091 8.641v-4.422l-1.107-0.636-9.323-5.318z"></path>
</symbol>
<symbol id="home-icon" viewBox="0 0 32 32">
<path fill="#bfcbd6" style="fill: var(--color1, #bfcbd6); stroke: var(--color1, #bfcbd6)" stroke="#bfcbd6" stroke-linejoin="miter" stroke-linecap="butt" stroke-miterlimit="4" stroke-width="0.44" d="M16.787 1.88l-0.001-0.001c-0.208-0.207-0.489-0.322-0.782-0.322s-0.574 0.116-0.782 0.322l-0 0-13.345 13.346c-0.182 0.212-0.277 0.485-0.266 0.764s0.126 0.544 0.324 0.741c0.197 0.197 0.462 0.313 0.741 0.324s0.552-0.084 0.764-0.266l0 0.001 0.012-0.012 12.547-12.547 12.559 12.567c0.212 0.182 0.485 0.277 0.764 0.266s0.544-0.126 0.741-0.324c0.197-0.198 0.313-0.462 0.324-0.741s-0.084-0.552-0.266-0.764l0.001-0-0.012-0.012-13.324-13.342z"></path>
<path fill="#bfcbd6" style="fill: var(--color1, #bfcbd6); stroke: var(--color1, #bfcbd6)" stroke="#bfcbd6" stroke-linejoin="miter" stroke-linecap="butt" stroke-miterlimit="4" stroke-width="0.44" d="M24.669 28.224h-2.891c-0.615 0-1.113-0.499-1.113-1.113v-6.222c0-0.858-0.695-1.553-1.553-1.553h-6.222c-0.858 0-1.553 0.695-1.553 1.553v6.222c0 0.615-0.498 1.113-1.113 1.113h-2.891v-10.079c0-0.988-1.194-1.483-1.893-0.784-0.208 0.208-0.325 0.49-0.325 0.784v10.299c0 0.53 0.21 1.038 0.585 1.413s0.883 0.585 1.413 0.585h4.889c0.858 0 1.553-0.695 1.553-1.553v-6.222c0-0.615 0.498-1.113 1.113-1.113h2.667c0.615 0 1.113 0.499 1.113 1.113v6.222c0 0.858 0.695 1.553 1.553 1.553h4.889c0.53 0 1.038-0.21 1.413-0.585s0.585-0.883 0.585-1.413v-10.512c0-0.294-0.117-0.576-0.325-0.784-0.699-0.699-1.893-0.204-1.893 0.784v10.292z"></path>
</symbol>
</defs>
</svg>
